<?xml version="1.0" encoding="UTF-8"?>
<svg width="77px" height="62px" viewBox="0 0 77 62" version="1.1" xmlns="http://www.w3.org/2000/svg" xmlns:xlink="http://www.w3.org/1999/xlink">
    <!-- Generator: Sketch 50.2 (55047) - http://www.bohemiancoding.com/sketch -->
    <title>Shape Copy 3</title>
    <desc>Created with Sketch.</desc>
    <defs>
        <linearGradient x1="49.9999261%" y1="0%" x2="49.9999261%" y2="100%" id="linearGradient-1">
            <stop stop-color="#00C9FF" offset="0%"></stop>
            <stop stop-color="#0984FB" offset="100%"></stop>
        </linearGradient>
    </defs>
    <g id="Page-1" stroke="none" stroke-width="1" fill="none" fill-rule="evenodd">
        <g id="Desktop-HD-Copy-2" transform="translate(-250.000000, -706.000000)" fill="url(#linearGradient-1)" fill-rule="nonzero">
            <g id="Oyster-consent" transform="translate(0.000000, 677.000000)">
                <g id="oyster-logo-copy-2" transform="translate(250.000000, 29.000000)">
                    <path d="M61.7116507,62 L15.3003595,62 C12.9846948,62 10.7638999,61.0799686 9.12646647,59.4410996 C7.48903306,57.8022307 6.56913229,55.5800013 6.56913229,53.2627355 L6.56913229,51.7977628 C6.56913229,51.7977628 13.1056308,51.7977628 15.965052,51.7977628 C16.4589999,51.7977628 16.9043511,51.5005217 17.0934839,51.0435391 C17.2825157,50.5875676 17.1781491,50.0618354 16.8288798,49.7120213 C12.2366504,45.114898 1.65046694,34.5163394 1.65046694,34.5163394 C0.207116898,33.071587 -0.342701866,30.9585479 0.212976795,28.9931186 C4.92513176,12.2718021 20.2924752,0 38.5012564,0 C56.7065016,0 72.0725315,12.266747 76.7867073,28.9850304 C77.3514789,30.9818017 76.7755936,33.1282042 75.2853646,34.5719456 C71.612834,38.1347922 64.6698817,45.1816253 60.1032134,49.7019111 C59.7485895,50.0497033 59.6394745,50.5774574 59.8263846,51.037473 C60.0143049,51.4974886 60.4608686,51.7977628 60.9579484,51.7977628 C63.85556,51.7977628 70.4428777,51.7977628 70.4428777,51.7977628 L70.4428777,53.2627355 C70.4428777,55.5800013 69.523482,57.8022307 67.8857456,59.4410996 C66.2490194,61.0799686 64.0273151,62 61.7116507,62 Z M67.5927513,53.8713716 L9.41986481,53.8713716 C9.41986481,57.0318308 11.9797248,59.5937643 15.1374949,59.5937643 C25.3122743,59.5937643 51.700342,59.5937643 61.8753231,59.5937643 C65.0325884,59.5937643 67.5927513,57.0318308 67.5927513,53.8713716 Z M45.6805236,29.3773074 L48.9553906,23.8470093 C49.3184001,24.1027981 49.6720137,24.3727415 50.0154234,24.654817 C50.129994,24.7488423 50.2433526,24.8448895 50.3555996,24.9409367 C50.6655672,25.2088579 50.9666441,25.4868892 51.2579208,25.7750311 C51.3952237,25.9105082 51.5316178,26.0490183 51.6649806,26.1895506 C51.6872078,26.213815 51.7104452,26.2380798 51.7336826,26.2623442 C52.1650913,26.7213488 52.5732626,27.203607 52.9551654,27.7050747 C53.072363,27.8587503 53.1865299,28.0134369 53.2986758,28.1701454 C53.314841,28.1933989 53.3310062,28.2166524 53.3471715,28.2399062 C53.40476,28.3197768 53.4603278,28.4016697 53.5158957,28.4825517 C53.5795461,28.5765769 53.6421864,28.6706019 53.7048264,28.7646272 C53.8139414,28.9314461 53.9210358,29.1012979 54.0250994,29.27115 C54.1099666,29.4116823 54.1938236,29.5542365 54.2756599,29.6967909 C54.3110212,29.7584632 54.3463826,29.8211467 54.3807337,29.882819 C54.3918474,29.9020286 54.4019504,29.921238 54.4120537,29.9394364 C54.4231674,29.9586458 54.4332707,29.9768442 54.4433739,29.9960536 C54.4706526,30.046605 54.4979313,30.0961449 54.5252103,30.1466963 C54.5787575,30.2477986 54.6323047,30.3489009 54.6848414,30.4510144 C54.724244,30.5288631 54.7626365,30.6057009 54.8010289,30.6845606 C54.9111541,30.9059748 55.0152177,31.129411 55.1152399,31.3558802 C55.171818,31.4822582 55.2263756,31.6096471 55.2799228,31.7370361 C55.3375113,31.8755461 55.3930792,32.0150674 55.4476368,32.1545887 C55.4920909,32.2708563 55.5355349,32.388135 55.5789791,32.5054138 C55.628485,32.6419019 55.6759702,32.7794011 55.722445,32.9179114 C55.7638685,33.0382233 55.8022607,33.1595459 55.8406531,33.2808688 C55.9194583,33.5336248 55.9932121,33.7884026 56.0609038,34.0431805 C56.0750484,34.0967648 56.089193,34.1493378 56.1023271,34.2019112 C56.1760808,34.4930859 56.2437726,34.7862828 56.3033818,35.0804904 C56.3599601,35.358522 56.409466,35.6385753 56.4529099,35.9196399 C56.4630132,35.9863675 56.4731164,36.0520839 56.4822092,36.1188115 C56.4923125,36.1905942 56.5024158,36.2623769 56.5115089,36.3341594 C56.518581,36.3877437 56.5256534,36.4423389 56.5327256,36.4969342 C56.5640456,36.7567674 56.5903141,37.0176113 56.6105206,37.2784553 C56.6347685,37.5847955 56.6509337,37.8931577 56.6590161,38.2015198 C56.6620472,38.3238537 56.665078,38.4471985 56.6660885,38.5705433 C56.6681091,38.8596961 56.6630574,39.1478376 56.6519439,39.4359794 C56.6489131,39.5027068 56.6458819,39.5694344 56.6428511,39.636162 C56.6418406,39.6604265 56.6408304,39.684691 56.6388098,39.7089557 C56.6357787,39.76254 56.6327478,39.8171353 56.6297167,39.8717305 C56.6287065,39.8838626 56.6276961,39.895995 56.6276961,39.9081274 C56.6256754,39.9263258 56.6246652,39.9445242 56.6236547,39.9627226 C56.6196134,40.021362 56.6155721,40.0800014 56.6105206,40.1386405 C56.6014276,40.2599634 56.5903141,40.3812863 56.5792006,40.5026092 C56.5761695,40.5309177 56.5731387,40.5592263 56.5701076,40.5875349 C56.5640456,40.6481965 56.5579836,40.7098688 56.5509115,40.7715413 C56.5367669,40.8928642 56.5216121,41.0131759 56.5064571,41.1344987 C56.4953436,41.2103256 56.4852404,41.2871631 56.4741266,41.3640009 C56.4599823,41.4600484 56.4448273,41.5571065 56.428662,41.6531537 C56.4145175,41.7421239 56.3993627,41.8310938 56.3831975,41.9200639 L56.3801666,41.9392733 C56.3771355,41.9594939 56.3730942,41.9787033 56.3700633,41.9979127 C56.356929,42.0686844 56.3437948,42.1394559 56.3296503,42.2102277 C56.3094437,42.3133519 56.288227,42.4154654 56.2670103,42.5185898 C56.256907,42.5630746 56.2478139,42.6075597 56.2377106,42.6530558 C56.2094218,42.7804447 56.1801221,42.9078336 56.1488021,43.0352226 C56.1245543,43.1353142 56.0992963,43.2354055 56.0730278,43.3344855 C56.0508006,43.4184006 56.0275632,43.5033267 56.0043258,43.5872415 C55.9760366,43.689355 55.9467373,43.7914682 55.9164275,43.8925705 C55.9103655,43.914813 55.9032934,43.9360446 55.8972314,43.9582871 C55.890159,43.9795184 55.884097,44.001761 55.8770249,44.0229926 C55.8659111,44.0593894 55.8547977,44.0957862 55.8436839,44.1311721 C55.8083226,44.2474399 55.7709407,44.3616855 55.7325482,44.4769421 C55.7103213,44.5416475 55.6880941,44.6073642 55.6658669,44.6720696 C55.6416191,44.7418301 55.616361,44.8115909 55.5911027,44.8813514 C55.5678653,44.9480791 55.5436175,45.0137955 55.5183594,45.0795121 C55.4991634,45.1310742 55.479967,45.1826363 55.4607709,45.2331877 C55.4415749,45.2817167 55.423389,45.3302459 55.4041926,45.3777638 C55.3577179,45.4950426 55.3102326,45.6113104 55.2617369,45.7275782 C55.2395097,45.7811622 55.2162723,45.8357575 55.193035,45.8893418 C55.1566632,45.9752788 55.1192812,46.0602048 55.0808888,46.1451306 C55.0293623,46.2603874 54.9758151,46.375644 54.9222679,46.4898896 C54.8323489,46.6779401 54.7404093,46.8639684 54.6454388,47.0479745 C54.5817883,47.1713196 54.5161172,47.2936532 54.4494359,47.4149761 C54.378713,47.5453982 54.3059697,47.674809 54.2312055,47.8032092 C54.2200921,47.8234296 54.2079682,47.8436502 54.1958442,47.8638705 C54.1766482,47.8972342 54.1574518,47.9305982 54.1372455,47.9639618 C54.1220905,47.9902485 54.1059253,48.0165352 54.08976,48.0428216 C54.0422748,48.1226925 53.9947896,48.2015522 53.9452837,48.2804122 C53.9089119,48.3390516 53.8725404,48.397691 53.8351584,48.4563304 C53.7462497,48.5958514 53.6553205,48.7343618 53.5623707,48.8718609 C53.5057924,48.9557759 53.4492143,49.0376688 53.3916258,49.1205727 C53.3411095,49.1933664 53.2895829,49.2651491 53.2370459,49.3379427 C53.2259325,49.353108 53.2148188,49.3692845 53.2026951,49.3854607 C53.1976433,49.392538 53.1915814,49.4006263 53.1855194,49.4087142 C53.1824886,49.4127584 53.1794574,49.4168025 53.1774368,49.4208466 C53.1744059,49.4248907 53.1713748,49.4279239 53.168344,49.4319677 C53.1562201,49.4511774 53.1430859,49.4703868 53.1319722,49.4906071 C53.1208587,49.5108277 53.1117657,49.5320593 53.1036831,49.5532906 C53.0824663,49.610919 53.0824663,49.6270953 53.0733735,49.6877568 L53.0733735,49.7110103 C53.0663011,49.7312307 53.0592289,49.7524623 53.0521565,49.7736938 C53.0501359,49.7817821 53.047105,49.7898701 53.0450844,49.7989693 C53.0430637,49.8050356 53.041043,49.8111016 53.0390224,49.8181789 L53.0380119,49.824245 C53.0349811,49.8333442 53.0329604,49.8414324 53.0309398,49.8505316 C53.0289191,49.8606418 53.025888,49.871763 53.0238674,49.8818734 C53.0188159,49.9020937 53.015785,49.9223141 53.0117437,49.9425347 C53.0087126,49.9617441 53.0056817,49.9809535 53.0036611,50.0011741 C52.9965887,50.0517252 52.9935578,50.1032873 52.9935578,50.1548497 C52.9935578,50.1588938 52.9935578,50.1639489 52.9935578,50.167993 C52.9935578,50.1801251 52.9935578,50.1922575 52.9935578,50.2043899 C52.994568,50.2337094 52.9965887,50.2630292 52.9996198,50.2923488 C53.0016404,50.3166133 53.0046713,50.340878 53.0087126,50.3641315 C53.009723,50.3732307 53.0117437,50.381319 53.0127539,50.3894069 C53.0127539,50.3924401 53.0137644,50.3954733 53.0147745,50.3985061 L53.0147745,50.4035612 C53.0167952,50.4146826 53.0198263,50.4258038 53.021847,50.4379361 C53.0279087,50.467256 53.0349811,50.4965755 53.0440739,50.5248841 C53.0460945,50.5349943 53.0491257,50.5451047 53.0521565,50.5542039 C53.0561978,50.5673473 53.0602391,50.5794794 53.0652909,50.5926227 C53.0652909,50.5936337 53.0663011,50.5956559 53.0663011,50.5966668 C53.0673115,50.5986888 53.0673115,50.5997 53.0683217,50.6017219 C53.072363,50.6138543 53.0774148,50.6259864 53.0814561,50.6391297 C53.084487,50.647218 53.0885283,50.6553062 53.0915591,50.6633945 C53.1016624,50.6886699 53.1137863,50.7139456 53.1259102,50.739221 C53.1410653,50.771574 53.1582407,50.8029155 53.1764266,50.8342572 C53.1804679,50.8413345 53.1855194,50.8494228 53.1895607,50.8564998 C53.193602,50.8625661 53.1966331,50.8676212 53.2006744,50.8726763 L53.2037053,50.8787423 C53.2410873,50.9373817 53.283521,50.991977 53.329996,51.0435391 C53.3481816,51.0637597 53.3663675,51.0829691 53.3855639,51.1011675 C53.3916258,51.1082448 53.3976878,51.1143108 53.40476,51.1203769 C53.4098115,51.125432 53.4148632,51.1294761 53.4199147,51.1345312 L53.423956,51.1385753 C53.4835652,51.1921596 53.5482261,51.2406888 53.6159179,51.2831517 C53.6745166,51.3195485 53.7361464,51.3519012 53.7997969,51.3781879 C53.8250552,51.3893093 53.8503132,51.3984085 53.8755713,51.4075077 C53.9220463,51.4236839 53.9685211,51.4368273 54.0160066,51.4479487 C54.1099666,51.46918 54.2059475,51.4803014 54.300918,51.4813124 C54.3413311,51.4813124 54.3817441,51.4803014 54.4211468,51.4762573 C54.474694,51.4722131 54.5272307,51.4641249 54.5797677,51.4530038 C54.6535214,51.4378382 54.7272752,51.4155957 54.7969876,51.3872871 C54.8232561,51.3771769 54.8495243,51.3660555 54.8757928,51.3539234 C54.8818548,51.3508903 54.8879167,51.3478571 54.8939787,51.3448242 C54.9192367,51.3316809 54.9444951,51.3185375 54.9697531,51.3043833 C54.981877,51.296295 54.9950111,51.289218 55.0081455,51.2811297 C55.013197,51.2770856 55.019259,51.2740525 55.0243108,51.2700083 C55.0303724,51.2659642 55.0374449,51.2619204 55.0435068,51.2578762 L55.0475481,51.2548431 C55.0556308,51.249788 55.0627029,51.2437219 55.0707855,51.2386666 C55.0748268,51.2356337 55.0788681,51.2326005 55.0829095,51.2295674 C55.0909921,51.2235013 55.0980642,51.2184462 55.1061468,51.2123802 C55.1081675,51.210358 55.1111986,51.2083361 55.1132193,51.2063139 L55.1556527,51.1729502 L55.2314271,51.1052116 C59.7112076,46.6213227 64.1909878,42.138445 68.6707679,37.6555672 C69.3598096,36.9660492 70.048851,36.2775422 70.7368822,35.5880242 C71.081403,35.2432652 71.4259239,34.8985062 71.7704444,34.5537472 C71.937148,34.3869285 72.1028413,34.2211206 72.2695449,34.0543016 C72.3705776,33.9531994 72.47161,33.8520971 72.571632,33.7520058 C72.5908283,33.7327961 72.6100244,33.7135868 72.6292205,33.6943774 C72.6524581,33.6701129 72.676706,33.6458482 72.6999434,33.6205727 C72.7252014,33.5942861 72.7504595,33.5669884 72.7747073,33.5396908 C72.7908725,33.5214924 72.8070378,33.502283 72.823203,33.4840846 C72.829265,33.4770073 72.8353269,33.4689191 72.8423991,33.461842 C72.869678,33.4284781 72.8969567,33.3961254 72.9232252,33.3627617 C72.9656587,33.3091774 73.0060718,33.2545821 73.0464849,33.197965 C73.0565881,33.1827994 73.0677016,33.1676342 73.0778049,33.1524689 C73.1091249,33.1069729 73.1394347,33.0604656 73.168734,33.0139586 C73.2283432,32.9199333 73.2829008,32.8238861 73.3344274,32.725817 C73.3728198,32.6499902 73.4102018,32.5721414 73.4445526,32.4942927 C73.457687,32.4629509 73.4708211,32.4316092 73.4839555,32.4002674 C73.5061824,32.3466831 73.526389,32.2930988 73.5455853,32.2385036 C73.566802,32.1798642 73.5859981,32.1202138 73.6051945,32.0595525 C73.6112564,32.038321 73.6173184,32.0160784 73.6243906,31.9948471 L73.6274214,31.9837257 C73.6536899,31.8886895 73.6769276,31.7926423 73.6971338,31.6955841 C73.7042062,31.6601983 73.7112784,31.6248124 73.7173404,31.5904378 C73.7324954,31.5014676 73.7446193,31.4124974 73.7547223,31.3235275 C73.7648256,31.2305132 73.7708876,31.1374992 73.7739187,31.0444849 C73.77796,30.9352944 73.7769495,30.8261039 73.771898,30.7169134 C73.7708876,30.6825387 73.7688669,30.6491748 73.7658361,30.6148001 C73.7648256,30.5996346 73.7638154,30.5844693 73.7628049,30.5693041 C73.7617948,30.5622268 73.7607843,30.5541386 73.7607843,30.5470615 L73.7597741,30.5359401 C73.7425987,30.352945 73.7122889,30.1709608 73.6698551,29.9920098 C73.6557106,29.9303372 73.6395453,29.8686647 73.6213597,29.8069924 C73.6183286,29.7978932 73.6163079,29.787783 73.6132771,29.7786838 C73.6112564,29.7736285 73.610246,29.7685734 73.6082253,29.7635183 C73.6021634,29.7432979 73.5961014,29.7220664 73.5900394,29.701846 C73.5769053,29.6614051 73.5647814,29.6199531 73.5516473,29.5795122 C73.5001205,29.4137042 73.4475837,29.2489075 73.3940365,29.0841107 C73.3687785,29.0082839 73.3445306,28.9314461 73.3192723,28.8556193 C73.1333727,28.2995565 72.9353489,27.7475376 72.7262119,27.2005741 C72.6362929,26.9639946 72.5443533,26.7284261 72.450393,26.4948796 C72.3847219,26.3321048 72.3190508,26.1703412 72.251359,26.0085773 C72.1553783,25.7780639 72.0573768,25.5485618 71.958365,25.3190593 C71.8916834,25.166395 71.8239916,25.0147413 71.7562998,24.8620769 C71.7391244,24.8246689 71.721949,24.7862501 71.7047733,24.7488423 C71.6017202,24.5213621 71.4966465,24.2938815 71.3895521,24.0684235 C71.3380256,23.9602439 71.286499,23.8510534 71.233962,23.7428739 C71.2188072,23.7105212 71.202642,23.6791794 71.187487,23.6468267 C71.0975683,23.4628203 71.0076493,23.2798252 70.9157097,23.09683 C70.8783277,23.0230254 70.8409457,22.9502314 70.8035638,22.8774377 C70.6964691,22.666134 70.5873541,22.4568522 70.4762184,22.2475703 C70.4428777,22.1848868 70.4085266,22.1211924 70.3741755,22.0574979 C70.3064837,21.9311199 70.2377817,21.804742 70.1680693,21.678364 C70.1023982,21.5600743 70.0367271,21.4417845 69.971056,21.3234948 C69.9195294,21.2335137 69.8690131,21.1425216 69.8164763,21.0525405 C69.73464,20.9079643 69.650783,20.7643989 69.566926,20.6208335 C69.5285338,20.5561281 69.4891312,20.4904117 69.4507388,20.424695 C69.4295218,20.3893091 69.408305,20.3529123 69.3860778,20.3175267 C69.3699126,20.2902291 69.3527372,20.2619202 69.336572,20.2346226 C69.3254585,20.2154132 69.3143448,20.1972148 69.3032313,20.1790163 C69.2527149,20.0951015 69.2021989,20.0121974 69.1506723,19.9292936 C69.0435779,19.7543866 68.9344626,19.5804904 68.8243374,19.4065945 C68.6626853,19.1508057 68.4980024,18.8970388 68.3292782,18.6452938 C68.1787396,18.4178135 68.02416,18.1923552 67.8685699,17.9679081 C67.7715788,17.8283868 67.6735775,17.6888658 67.5745655,17.5503555 C67.4826261,17.4219556 67.389676,17.2945666 67.2967262,17.1661665 C67.165384,16.9872154 67.0330315,16.8092754 66.8986582,16.6333572 C66.860266,16.5828061 66.8228838,16.5332659 66.7844916,16.4837257 C66.6662835,16.3300501 66.5470652,16.1763745 66.4268364,16.0247211 C66.3864236,15.973159 66.3460105,15.9226079 66.3055974,15.8720565 C66.2207302,15.7658991 66.135863,15.6607528 66.0499854,15.5556064 C66.0227067,15.5222424 65.9954277,15.4888787 65.968149,15.456526 C65.8024557,15.2553324 65.6347419,15.0561608 65.4660177,14.8580001 C65.3700368,14.7477986 65.2750663,14.6375969 65.1780749,14.5273954 C65.0154127,14.3423781 64.8507298,14.1593829 64.6840263,13.9773987 C64.6274479,13.9147152 64.5698594,13.8530429 64.5122709,13.7903594 C64.4405379,13.7125107 64.3677946,13.6356729 64.295051,13.5588351 C63.6171231,12.8410085 62.9088856,12.1514905 62.1723587,11.4943252 C62.0107067,11.3497488 61.8480444,11.2071946 61.6833616,11.0656514 C61.5762672,10.9726371 61.4681623,10.880634 61.3590473,10.7896419 C61.2418496,10.6915725 61.1236415,10.5945144 61.0054336,10.4974563 C60.9033907,10.4145521 60.8013478,10.3326592 60.6993052,10.2507664 C60.6558613,10.2163917 60.6134276,10.1830278 60.5709938,10.1496641 C60.4083316,10.0212642 60.2436487,9.89387526 60.0789658,9.76951921 C59.7243417,9.50058705 59.3646661,9.23974313 58.9999387,8.98597623 C58.9322469,8.93845798 58.863545,8.89094001 58.7948427,8.84342176 C58.7948427,8.83634475 58.7948427,8.8282565 58.7948427,8.82117922 C58.7948427,7.38855919 57.6329694,6.22487106 56.2013391,6.22487106 C55.7335587,6.22487106 55.2950776,6.3492271 54.9172161,6.5655862 C54.7666778,6.49077033 54.615129,6.41696569 54.4635802,6.34417201 C54.2150403,6.22588229 53.9644798,6.10961449 53.712909,5.99739082 C53.6381451,5.96301617 53.5623707,5.92965223 53.4865963,5.89628855 C53.2319944,5.7850761 52.9763821,5.67689655 52.7187494,5.57175016 C52.5166845,5.48985727 52.3136092,5.40897535 52.1095234,5.33011536 C51.8650249,5.23609037 51.6195161,5.14509827 51.3729968,5.05713907 C50.9543182,4.90649663 50.5330128,4.7649534 50.1090803,4.63250938 C49.6467557,4.48692202 49.1811979,4.35245581 48.7131147,4.2270888 C48.409411,4.14519591 48.1044948,4.06835811 47.7986695,3.99455353 C47.3000744,3.87626377 46.7990543,3.76808428 46.2958115,3.670015 C46.0934433,3.63058509 45.8907721,3.59317723 45.6877981,3.55779141 C44.9760241,3.43141349 44.2606132,3.32727806 43.5427773,3.2423521 C42.0426471,3.06542299 40.5325144,2.97645293 39.0220789,2.96533169 C38.6060271,2.96229861 38.1897734,2.96533169 37.7738226,2.9744309 C37.458197,2.98049703 37.1425717,2.99060728 36.8271482,3.00476161 C36.493438,3.01891593 36.1597276,3.03711435 35.8264215,3.06036788 C35.3989531,3.08867655 34.9717878,3.12406237 34.5454306,3.16652534 C33.7726332,3.24336312 33.0020585,3.34345445 32.2353229,3.46679931 C31.958393,3.51128432 31.681867,3.55880243 31.4059474,3.60935362 C30.7680282,3.72764334 30.1330391,3.86210945 29.5022934,4.01376296 C28.6682703,4.21394573 27.8415213,4.4454701 27.0245726,4.70732498 C26.2097459,4.96816917 25.404719,5.26035484 24.6121192,5.5828713 C24.0588652,5.80731838 23.5116734,6.04794195 22.9713517,6.30272009 C22.8451619,6.36135947 22.7192756,6.42202078 22.5938943,6.48268208 C22.5140786,6.52211208 22.4344649,6.56154208 22.3549525,6.60097181 C22.3152466,6.62018146 22.2756419,6.64040181 22.2360373,6.65961119 C21.8245318,6.38562394 21.3303821,6.22487106 20.7990522,6.22487106 C19.3673209,6.22487106 18.2048412,7.38855919 18.2048412,8.82117922 C18.2048412,8.89801702 18.2082764,8.97485482 18.2149445,9.05068166 C18.1799872,9.07494612 18.145131,9.09921086 18.1103758,9.12347533 C17.3935504,9.62494282 16.6963251,10.1557301 16.0204178,10.7107822 C15.5349568,11.1101365 15.0604073,11.5226338 14.5971732,11.9472637 C14.3456025,12.1787881 14.0972646,12.4133456 13.8523619,12.650936 C13.6730291,12.824832 13.4956162,13.0007501 13.3199206,13.1786902 C13.21222,13.2878807 13.1052267,13.3980822 12.9989404,13.5082839 C12.7714152,13.7448634 12.5471232,13.9834648 12.3260643,14.2261105 C12.1406695,14.4293263 11.9574976,14.633553 11.7765485,14.8408127 C11.6969348,14.9318048 11.6178265,15.0238081 11.5390211,15.1158111 C11.4645602,15.2027591 11.3906044,15.2897071 11.3169517,15.3766551 C11.0864966,15.6506426 10.8597797,15.927663 10.6369021,16.2077163 C10.4597921,16.4311527 10.285208,16.6555998 10.1129476,16.882069 C10.0232308,16.9993478 9.93422117,17.1176375 9.84581776,17.2369382 C9.75135239,17.3643271 9.65749321,17.4917161 9.56454331,17.620116 C9.52059418,17.6807776 9.47664506,17.7414389 9.43299904,17.8021004 C9.35661848,17.9082578 9.28064205,18.0154264 9.20527182,18.1225947 C9.00593472,18.4066924 8.81023483,18.692812 8.61817205,18.9809536 C8.27102445,19.5026417 7.93569764,20.0314071 7.61188855,20.5672495 C7.45902639,20.8210161 7.30889212,21.074783 7.16118264,21.3315831 C7.02721357,21.5631074 6.8954672,21.7966537 6.76584253,22.0312112 C6.6848145,22.1778096 6.60469574,22.3254191 6.52538522,22.4730284 C6.42283726,22.6631008 6.32160271,22.8551955 6.22178262,23.0472898 C6.15126196,23.182767 6.08134746,23.3192552 6.01224126,23.4557433 C5.96667561,23.5457244 5.92131202,23.6367165 5.87625154,23.7266974 C5.82624045,23.8277999 5.77663352,23.9278912 5.72732967,24.0289935 C5.69772715,24.0896548 5.66832668,24.1503164 5.63892623,24.2109777 C5.52182959,24.4536235 5.40685462,24.6972799 5.29400135,24.9419476 C5.25651829,25.0228295 5.21923731,25.1047224 5.18225943,25.1856044 C5.11941722,25.3241144 5.05738328,25.4626248 4.99605655,25.6021461 C4.86249162,25.9044419 4.73236177,26.207749 4.60556602,26.513078 C4.5078676,26.7486465 4.41208882,26.984215 4.31853273,27.2207944 C4.25104304,27.3926684 4.18446262,27.5635315 4.11919565,27.7354052 C4.08807764,27.8172984 4.05716171,27.8991913 4.02654887,27.9810842 C3.87611149,28.3844823 3.73173607,28.7899029 3.5943319,29.1973451 C3.55856641,29.3035027 3.52330606,29.410671 3.48855089,29.5168287 C3.46965782,29.5744571 3.45086576,29.6320852 3.4322758,29.6907246 L3.41994984,29.7281324 C3.41540338,29.7432979 3.41085692,29.7574522 3.40651253,29.7716065 C3.40135985,29.788794 3.39630824,29.8059814 3.39125661,29.8231686 L3.38822562,29.83429 C3.37377799,29.8848412 3.36023963,29.9353923 3.34781265,29.9869544 C3.33548669,30.0375058 3.32407001,30.0890679 3.3137647,30.14063 C3.30689448,30.1739939 3.30063048,30.2083686 3.29466956,30.2427435 C3.2875973,30.2831845 3.28123225,30.3226142 3.27547337,30.3640661 C3.26638046,30.4277609 3.25880302,30.4914553 3.2528421,30.5551498 C3.24920495,30.5945795 3.24607293,30.6340095 3.24364817,30.6734395 C3.24021306,30.7280348 3.23799034,30.7816188 3.23677795,30.8352031 C3.23607073,30.8655339 3.23586866,30.8958647 3.23586866,30.9251842 C3.23586866,30.9383276 3.23596968,30.9504599 3.23607073,30.962592 C3.23617175,30.9716912 3.2362728,30.9807904 3.23637381,30.9898897 C3.23657588,30.9989889 3.23677795,31.0070771 3.23698001,31.0161763 C3.23748519,31.0404408 3.23829342,31.0647055 3.23930375,31.08897 C3.24263784,31.1668188 3.24819463,31.2456788 3.2561762,31.3235275 C3.27618062,31.519666 3.31103683,31.7158045 3.36013862,31.9068879 C3.37165632,31.9523839 3.38398228,31.996869 3.39701546,32.0413541 C3.41944466,32.1171809 3.44409661,32.1930075 3.47097123,32.2678234 C3.48551991,32.3082643 3.50077581,32.3476941 3.51653688,32.388135 C3.53250002,32.427565 3.54927142,32.468006 3.56654798,32.507436 C3.57634811,32.5296783 3.58635033,32.552932 3.59655462,32.5751746 C3.62565198,32.6378578 3.65646689,32.7005413 3.68879727,32.7632248 C3.72375451,32.8299525 3.76063137,32.8956689 3.7993268,32.9593633 C3.81559303,32.9866609 3.83206134,33.0139586 3.84893376,33.0402452 C3.86560412,33.0665319 3.8826786,33.0928186 3.89995516,33.119105 C3.90753259,33.1302264 3.91511003,33.1413475 3.92278849,33.1524689 C3.9383475,33.1757224 3.95431064,33.1989759 3.97047582,33.2212185 C3.99310712,33.2535712 4.01624354,33.2849129 4.03988513,33.3162547 C4.04685638,33.3253539 4.05392867,33.3344531 4.06089991,33.3435523 C4.07666098,33.3637727 4.0926241,33.3839933 4.10889032,33.4042136 C4.163852,33.4729632 4.22103637,33.5396908 4.28034245,33.6043962 C4.30014483,33.6256278 4.32014925,33.6468594 4.34045678,33.6680907 C4.35015589,33.6782009 4.35995605,33.6883113 4.36985723,33.6984215 C4.37632332,33.7044875 4.38278939,33.7115648 4.38925548,33.7176309 C4.84117376,34.1715804 5.29319309,34.6245189 5.74521241,35.0774575 C6.739271,36.0743264 7.73373372,37.0701847 8.7283985,38.0660426 C9.72316433,39.0619006 10.7180312,40.0567476 11.7131001,41.0526058 C12.5272197,41.8664796 13.3414406,42.6813646 14.1557623,43.4952384 C15.4224066,44.7620507 16.6890509,46.0288631 17.9555942,47.2946644 C18.950764,48.2905224 19.945833,49.2853694 20.9408008,50.2812277 C21.2153061,50.5552149 21.4897102,50.8302131 21.7642155,51.1052116 L21.7789662,51.1183549 L21.7834116,51.1223991 C21.796647,51.1345312 21.8097811,51.1466635 21.8231175,51.1577849 C21.8286741,51.16284 21.834231,51.1678951 21.8398889,51.1729502 L21.8429197,51.1759834 C21.8602975,51.1901377 21.878079,51.2053029 21.8963659,51.2184462 C21.9197046,51.2356337 21.9438511,51.2528212 21.968402,51.2679864 C21.9823446,51.2770856 21.9964892,51.2861848 22.0108358,51.295284 C22.0491272,51.3175266 22.0887318,51.3387579 22.1292459,51.3579675 C22.2084553,51.3943644 22.291201,51.4236839 22.3761693,51.4439046 C22.4852843,51.4712022 22.5977335,51.4833343 22.7099807,51.4813124 C22.8258649,51.4792902 22.941648,51.4610917 23.052986,51.428739 C23.1304777,51.4064965 23.205848,51.3771769 23.2778842,51.3407801 C23.3165796,51.3205595 23.3541636,51.2993282 23.3907374,51.2760747 C23.4574188,51.2346227 23.5202611,51.1860935 23.5783547,51.1325092 C23.6024005,51.1102667 23.6256379,51.0870132 23.6479661,51.0627487 C23.6711024,51.038484 23.6934307,51.0121976 23.7146477,50.9859109 C23.7202043,50.9788336 23.7256601,50.9717566 23.7310149,50.9646793 C23.7339448,50.9616462 23.7367736,50.9576023 23.7396026,50.9535582 L23.7424315,50.9495141 C23.7548584,50.9333376 23.7668813,50.9161501 23.7785002,50.8989629 C23.7849662,50.8888525 23.7914322,50.8797533 23.7976962,50.8696431 C23.8246719,50.8271802 23.8492228,50.7826951 23.8711469,50.7371991 C23.8782191,50.7230448 23.8849884,50.7078795 23.8915555,50.692714 C23.8920606,50.6917031 23.8927677,50.6906921 23.8932731,50.6886699 C23.8993351,50.6755266 23.9050937,50.6613723 23.9107516,50.647218 L23.9131763,50.640141 C23.9204508,50.6219425 23.9272199,50.6027329 23.9335849,50.5845345 C23.9441933,50.5531927 23.9535894,50.52084 23.961773,50.4884873 C23.9645008,50.4783771 23.9670268,50.467256 23.9695526,50.4561346 C23.9711692,50.4490576 23.9727855,50.4419803 23.9742,50.434903 C23.9765237,50.4247928 23.9786454,50.4136717 23.980565,50.4025503 C23.9817775,50.3964842 23.9828887,50.3894069 23.9841012,50.3833409 L23.9851114,50.3772748 C23.9890517,50.3530101 23.9923859,50.3287456 23.9950127,50.3044812 C23.9961241,50.2933598 23.9972354,50.2812277 23.9981448,50.2701062 L23.9986499,50.2640402 C23.999458,50.2529188 24.0001655,50.2417977 24.0007716,50.2316875 C24.0012767,50.221577 24.0015797,50.2124778 24.001883,50.2023677 L24.0020851,50.1963016 C24.0021861,50.1902353 24.0023881,50.1831583 24.0023881,50.1770922 L24.0024892,50.1700149 C24.0025902,50.1457505 24.0019841,50.1214857 24.0007716,50.0972213 C24.0003675,50.0881221 23.9997614,50.0790228 23.999155,50.0699236 L23.9986499,50.0628464 C23.9971343,50.043637 23.9951137,50.0234166 23.992689,50.003196 C23.9913754,49.9920749 23.9897591,49.9809535 23.9881425,49.9698323 L23.9872331,49.9637663 C23.9808681,49.9223141 23.9725834,49.8808622 23.9623791,49.8404212 C23.9598534,49.830311 23.9572266,49.8212118 23.9544986,49.8111016 C23.9521749,49.8030134 23.9497501,49.7949252 23.9473254,49.7858259 C23.9421726,49.7686388 23.936616,49.7514513 23.9307561,49.7342638 C23.9292405,49.7302197 23.927725,49.7261756 23.9262097,49.7211205 L23.9245931,49.7170764 C23.9234816,49.7140435 23.9234816,49.7140435 23.9223704,49.7110103 C23.9222694,49.7029221 23.9229765,49.6948338 23.9220673,49.6877568 C23.9161064,49.6351835 23.9106506,49.6028308 23.8923637,49.5532906 C23.8843821,49.5320593 23.8734706,49.5118387 23.8639735,49.4906071 L23.8272989,49.432979 C23.781632,49.3702955 23.7362685,49.307612 23.69141,49.2439175 C23.6016933,49.1185505 23.513492,48.9911615 23.4270082,48.8627617 C23.3641659,48.7697476 23.302031,48.6757224 23.2409063,48.5806862 C23.2064541,48.5281128 23.1722043,48.4745288 23.1383583,48.4209445 C23.1271438,48.4027461 23.115929,48.3855586 23.1047146,48.3673602 C23.0934998,48.3501728 23.0822853,48.3319743 23.0710706,48.3137759 C23.0562189,48.2905224 23.0413672,48.2662579 23.0266165,48.2419932 C23.0117645,48.2177287 22.9971148,48.1944752 22.9824651,48.1702108 L22.9715537,48.1520123 C22.9605413,48.1348249 22.9496296,48.1166265 22.9386171,48.098428 C22.9023464,48.0377665 22.8662779,47.9781161 22.8306133,47.9174548 C22.7592846,47.7961319 22.6893698,47.6737981 22.6208699,47.5504533 C22.5968241,47.5079904 22.5730816,47.4645163 22.5494399,47.4220534 C22.4834657,47.3007305 22.4189061,47.1794076 22.3556597,47.058085 C22.34101,47.0297761 22.3263603,47.0014675 22.3119127,46.9731589 C22.2915041,46.932718 22.2712976,46.893288 22.251091,46.852847 C22.2253279,46.8012849 22.1998675,46.7497228 22.1746095,46.6981605 L22.1662238,46.6809733 C22.1381367,46.6233449 22.1103529,46.5667274 22.0828719,46.508088 C22.0361948,46.4100189 21.9904272,46.3119495 21.9455687,46.2128692 C21.9349604,46.1896157 21.924453,46.1663622 21.9140467,46.1431087 C21.8832318,46.0743591 21.853023,46.0056096 21.8231175,45.93686 C21.7703785,45.8155371 21.718953,45.6932033 21.668841,45.5708694 C21.5826602,45.3595654 21.5004198,45.1462395 21.4223217,44.9319026 C21.3830199,44.823723 21.3449308,44.7165547 21.3077508,44.6073642 C21.3010827,44.5881548 21.2944144,44.5689451 21.2878473,44.5497358 C21.2768349,44.517383 21.2659232,44.4850303 21.2552138,44.4526776 C21.2313703,44.3808949 21.2081327,44.3091122 21.1851983,44.2373295 C21.1706497,44.1918334 21.1563031,44.1463374 21.1421585,44.1008413 C21.0976031,43.9572762 21.0548666,43.8126998 21.0138474,43.6681234 C20.9629269,43.4881611 20.9147343,43.3071879 20.8693707,43.1252037 C20.8438096,43.0230905 20.8191577,42.919966 20.795415,42.8168415 C20.7746023,42.7268607 20.7544968,42.6368796 20.7349977,42.5458875 C20.7197416,42.4751157 20.7048899,42.4043442 20.6904422,42.3325615 C20.6638707,42.2011285 20.6389157,42.0696954 20.6152742,41.9382623 C20.6107276,41.9129866 20.6063832,41.8887222 20.6020388,41.8634465 C20.586783,41.7764985 20.5722344,41.6895505 20.5583929,41.6026025 C20.5514215,41.5591284 20.5445514,41.5156546 20.5379843,41.4721805 C20.5246479,41.3852325 20.5120189,41.2972735 20.4999959,41.2103256 C20.4755463,41.0323852 20.4538242,40.8544452 20.4346282,40.6765051 C20.4304858,40.6380861 20.4265455,40.5996673 20.4226052,40.5612485 C20.4100772,40.4368925 20.3986605,40.3125367 20.3886582,40.1871697 C20.3862335,40.1568389 20.3837077,40.1254974 20.381485,40.0951666 C20.3764333,40.0274281 20.3716848,39.9596895 20.3672394,39.8909399 C20.3642083,39.8444329 20.3613795,39.7969147 20.3587527,39.7493967 C20.3545094,39.6745808 20.3507711,39.5987542 20.347437,39.5239384 C20.3451133,39.4723763 20.3430926,39.4198029 20.341274,39.3682408 C20.3367276,39.2408519 20.3334944,39.113463 20.3316758,38.986074 C20.3306656,38.9223796 20.3300595,38.8596961 20.3297565,38.7960016 C20.3296554,38.7585938 20.3296554,38.7221967 20.3296554,38.6857999 L20.3296554,38.6655795 C20.3298575,38.6180615 20.3300595,38.5705433 20.3305646,38.5230253 C20.3324842,38.3400299 20.3370306,38.1580457 20.3442041,37.9750505 C20.3472349,37.9002347 20.3506701,37.82643 20.3545094,37.7516144 C20.3562267,37.7182505 20.3580453,37.6848868 20.360066,37.6505119 C20.3651178,37.5635639 20.3706744,37.4766159 20.3769386,37.389668 C20.3804746,37.3401278 20.3843138,37.2895767 20.3883551,37.2400365 C20.3918914,37.1955514 20.3955286,37.1520776 20.3993676,37.1075925 C20.4098752,36.9882918 20.4213927,36.8689908 20.4342238,36.7507011 C20.4442261,36.6566761 20.4550367,36.5626509 20.4665543,36.4686256 C20.4727173,36.4190854 20.4791833,36.3685343 20.4856493,36.3189941 C20.4928228,36.2643989 20.5001983,36.2108146 20.5077755,36.1562193 C20.5306088,35.9944557 20.5554628,35.8337029 20.5825397,35.6729502 C20.6038575,35.5465723 20.6264887,35.4201943 20.6504335,35.2938163 C20.6612439,35.2371991 20.6724584,35.1795707 20.6838752,35.1229535 C20.693069,35.0774575 20.7023641,35.0319614 20.7118613,34.9854542 C20.7285316,34.9065944 20.745606,34.8267235 20.7633878,34.7468528 C20.7874334,34.6386732 20.8124896,34.5304937 20.8385558,34.4233254 C20.9103899,34.1260843 20.9898016,33.8308655 21.0765884,33.5386798 C21.1004322,33.4577979 21.124781,33.377927 21.149736,33.2980563 C21.1762065,33.2131302 21.2032832,33.1282042 21.230966,33.0442894 C21.2402611,33.0159808 21.2495559,32.9876719 21.2589521,32.9593633 C21.2753193,32.9098231 21.2918887,32.8612942 21.30866,32.811754 C21.3506897,32.6904312 21.3938305,32.5680973 21.4383857,32.4467744 C21.4559654,32.3992564 21.4736462,32.3517382 21.4916298,32.3042202 C21.5245664,32.216261 21.5583114,32.129313 21.5926622,32.0423651 C21.6021594,32.0181006 21.6117576,31.9938359 21.6213555,31.9695714 C21.6515643,31.8947558 21.6822781,31.818929 21.7134971,31.7441131 C21.7955355,31.5459527 21.8812111,31.3498142 21.9702207,31.1556976 L27.4185994,34.3798512 C26.8194767,35.8084274 26.4883933,37.3775356 26.4883933,39.0234818 C26.4883933,45.6608506 31.8734246,51.0496054 38.5062071,51.0496054 C45.1390904,51.0496054 50.5240207,45.6608506 50.5240207,39.0234818 C50.5240207,35.0764463 48.6194575,31.5702171 45.6805236,29.3773074 Z M28.5399589,32.3052312 L23.0893575,29.0790554 C23.1100691,29.0467027 23.1307808,29.013339 23.1515937,28.9809863 C23.2507065,28.8252887 23.352244,28.6706019 23.4560045,28.5169266 C23.5194529,28.4239123 23.5838105,28.3308983 23.6489765,28.2388949 C23.7285899,28.1256603 23.8095171,28.0144478 23.8916565,27.9032351 C23.9799589,27.7839344 24.0698779,27.6656447 24.1611101,27.548366 C24.2933615,27.3785141 24.428644,27.2106842 24.5668567,27.0458875 C24.6250513,26.9761267 24.68365,26.9073772 24.7428551,26.8386276 C24.7664968,26.81133 24.7903403,26.7840324 24.8141841,26.7567347 C24.8537887,26.7112387 24.8936967,26.6657426 24.9338065,26.6212575 C24.9900817,26.5575631 25.0467608,26.4948796 25.1038442,26.4332073 C25.1242528,26.4109648 25.1447624,26.3887222 25.1651709,26.3664797 C25.1774969,26.3533363 25.1898229,26.340193 25.2021488,26.3260387 C25.2062911,26.3219946 25.2104335,26.3179505 25.2145758,26.3128954 C25.2187181,26.3088513 25.2232645,26.3048071 25.2272048,26.299752 C25.2421576,26.2815536 25.2577167,26.2643662 25.2711541,26.2451568 C25.2844903,26.2259474 25.2965132,26.206738 25.3070205,26.1855064 C25.3282373,26.1440545 25.3434933,26.0995694 25.3523841,26.0540734 C25.3568295,26.0318308 25.3597596,26.0085773 25.3609718,25.9853238 C25.3621843,25.9620703 25.3618812,25.9388168 25.3598606,25.9155633 C25.3558193,25.869056 25.3454129,25.82356 25.3288436,25.7800861 C25.3121733,25.7356011 25.289542,25.6951601 25.261657,25.6577523 C25.2477144,25.6395539 25.2312461,25.6223664 25.2159903,25.605179 L24.0632095,24.4465462 C24.0186544,24.4071162 24.0090562,24.3949841 23.9573276,24.3646533 C23.8993351,24.3312896 23.8346741,24.310058 23.7681949,24.3019698 C23.7018163,24.2938815 23.6339225,24.2999479 23.5696659,24.3181463 C23.5267271,24.3312896 23.4857079,24.349488 23.4477198,24.3727415 C23.4287255,24.3838627 23.4113481,24.398017 23.3931622,24.4111603 L23.3442624,24.4566564 C23.2954639,24.5082187 23.2467662,24.5607918 23.1984725,24.6133651 C23.1587669,24.656839 23.1193642,24.6993021 23.0800626,24.742776 C23.0277277,24.8004044 22.975696,24.8590438 22.9239675,24.9176832 C22.7086672,25.1603287 22.4990248,25.4090405 22.2952424,25.6617964 C22.0704449,25.9408388 21.852922,26.2259474 21.6427745,26.5161112 C21.5582104,26.6323789 21.4748585,26.7506687 21.392719,26.8689584 C21.3734219,26.896256 21.3542256,26.9245646 21.3350295,26.9528732 C21.2438983,27.0853172 21.1542824,27.2197834 21.0662831,27.3542497 C20.9589866,27.5190464 20.8539129,27.6848541 20.7512639,27.852684 C20.5751642,28.1398149 20.4060359,28.4320005 20.2439798,28.7272194 C20.1755806,28.8525864 20.1083942,28.9779531 20.0425211,29.1043311 C20.035954,29.1174744 20.0293867,29.1296068 20.0229206,29.1427498 C19.9966521,29.1933012 19.970687,29.2438524 19.9448225,29.2944035 C19.9068345,29.3692191 19.8693512,29.444035 19.8322723,29.5188506 C19.790445,29.6037766 19.7491227,29.6897136 19.7084066,29.7746397 C19.6248526,29.9505576 19.5436227,30.1274867 19.4650195,30.305427 C19.3808594,30.4954992 19.2996292,30.6865828 19.221228,30.8796882 C19.1653571,31.0171873 19.1109004,31.1556976 19.0578583,31.2942077 C19.0094639,31.4215966 18.9623828,31.5479746 18.9164128,31.6763748 C18.8753936,31.7906204 18.8353849,31.904866 18.7962853,32.0201225 C18.7663796,32.1080817 18.7371813,32.1960407 18.708387,32.2850108 C18.6485758,32.469017 18.5913914,32.6540343 18.536834,32.8400626 C18.4669196,33.078664 18.4013495,33.3172657 18.3400227,33.5578892 C18.2768773,33.8055901 18.2182784,34.0543016 18.1643271,34.3050356 C18.0893611,34.6518166 18.023387,35.0016307 17.9663035,35.3524557 C17.9564023,35.4131173 17.9468041,35.4747896 17.9374083,35.5354511 C17.9331649,35.5627488 17.9290226,35.5910574 17.9248803,35.618355 C17.9042697,35.7568651 17.8850733,35.8943644 17.8672918,36.0328745 C17.8249591,36.3624682 17.7905069,36.6920617 17.7638343,37.0226664 C17.75363,37.1490444 17.7447393,37.2754224 17.7368587,37.4018003 C17.7333225,37.4574066 17.7300896,37.5130128 17.7270585,37.568619 C17.7243307,37.6201814 17.721805,37.6707325 17.7193802,37.7212836 C17.7154399,37.8072206 17.7118027,37.8931577 17.7088726,37.9801056 C17.7055387,38.0761528 17.7029119,38.1722 17.7008913,38.2682472 C17.696951,38.4532645 17.6955364,38.6372709 17.6965466,38.8222883 C17.6979612,39.1114408 17.7054377,39.4005936 17.7188749,39.6897463 C17.7267554,39.8606091 17.7367577,40.0304612 17.7487806,40.200313 C17.7540341,40.2761399 17.759894,40.3519664 17.766057,40.4277933 C17.7687851,40.4611572 17.7716139,40.4945209 17.7745437,40.5278846 C17.7773728,40.5602373 17.7803026,40.5936012 17.7833337,40.6269649 C17.7869707,40.6663949 17.79081,40.7068359 17.7946492,40.7472768 C17.797276,40.7735632 17.7999031,40.7998499 17.8026308,40.8271475 C17.8086928,40.8867979 17.8149568,40.9464482 17.8215239,41.0060988 C17.8273838,41.0596829 17.8334457,41.1122562 17.8397097,41.1658405 C17.8420335,41.1860608 17.8444582,41.2052702 17.8467822,41.2254908 C17.8508235,41.2588545 17.8548648,41.2922185 17.8590071,41.3245712 C17.8665844,41.3842215 17.8742629,41.4438719 17.8822445,41.5035222 C17.9056839,41.6784294 17.9312453,41.8523253 17.9591301,42.0262213 C17.9804481,42.1586653 18.0030794,42.2911096 18.0269229,42.4235536 C18.0377336,42.4842149 18.048746,42.5438653 18.0600615,42.6035156 C18.0764288,42.6894526 18.0933014,42.7764006 18.1107799,42.8623376 C18.1214893,42.9149109 18.132502,42.9684952 18.1436155,43.0210683 C18.1478588,43.0412889 18.1521022,43.0604983 18.1563455,43.0807189 C18.1648322,43.1201486 18.1733192,43.1595786 18.1821089,43.2000196 C18.1981731,43.2728133 18.2146414,43.3456069 18.2315138,43.4184006 C18.2378788,43.4467092 18.2443448,43.4740068 18.2508109,43.5013045 C18.2702093,43.5831974 18.2901125,43.6650902 18.31042,43.7469831 C18.3171894,43.7742808 18.3240595,43.8015784 18.3309296,43.828876 C18.3361834,43.8501076 18.341336,43.8703279 18.3465898,43.8905486 C18.350126,43.9047028 18.3536619,43.9178462 18.3571981,43.9320005 C18.3614415,43.948177 18.3657858,43.9653642 18.3701302,43.9815406 L12.6129963,38.2207292 C12.6172397,38.0165025 12.624009,37.8132867 12.6330008,37.6100712 C12.6387597,37.4786381 12.6455288,37.3472051 12.6534094,37.215772 C12.6587642,37.1257909 12.6644219,37.0368207 12.6706859,36.9478508 C12.6762427,36.8689908 12.6821026,36.7901311 12.6882656,36.7112714 C12.6940245,36.6374665 12.7001875,36.5636618 12.7065525,36.4908681 C12.7152413,36.3917878 12.7244351,36.2927075 12.7341343,36.1946383 C12.7483799,36.0510729 12.763737,35.9075078 12.7804073,35.7639423 C12.7834381,35.7376557 12.7864693,35.7123802 12.7895001,35.6860936 C12.8025335,35.5769031 12.8161727,35.4677125 12.8306203,35.358522 C12.8408246,35.280673 12.851433,35.2028242 12.8624457,35.1249755 C12.8683056,35.0835235 12.8741653,35.0420716 12.8803282,35.0006197 C12.9045761,34.8348117 12.9303395,34.669004 12.9578202,34.5031961 C12.9938889,34.2868372 13.0325844,34.0704781 13.0742097,33.854119 C13.1097731,33.6691017 13.1472561,33.4850955 13.18676,33.3010892 C13.224445,33.1261822 13.2640496,32.9512751 13.3054729,32.7763682 C13.3125453,32.7470483 13.3197185,32.7167178 13.326993,32.686387 C13.3628594,32.5377665 13.4001403,32.3891463 13.4387348,32.2405258 C13.4890491,32.0474202 13.5414848,31.8543148 13.5963455,31.6622202 C13.6577733,31.4468723 13.7219289,31.2325354 13.7890145,31.0181985 C13.8246789,30.9049639 13.8610507,30.7917292 13.8983316,30.6784946 C13.9191443,30.6148001 13.94026,30.5511057 13.961578,30.4884222 C13.9982528,30.3802426 14.0355338,30.2720631 14.0736229,30.1638835 C14.1336364,29.9930207 14.1954682,29.8241799 14.2590177,29.6543278 C14.3065029,29.528961 14.3549983,29.4025831 14.4044032,29.2772161 C14.428146,29.2175657 14.4519897,29.1579154 14.4761363,29.0972538 C14.5440301,28.9294239 14.6137425,28.7615943 14.6851726,28.5947753 C14.7257877,28.4997391 14.7668069,28.4057139 14.8085332,28.3106776 C16.1622674,28.2247406 17.2349294,27.0964386 17.2349294,25.7204358 C17.2349294,25.2664863 17.1184389,24.8398344 16.913747,24.4687887 C16.9916431,24.35151 17.0703476,24.2352424 17.150163,24.1189746 C17.202599,24.0431478 17.2555401,23.96631 17.3087842,23.8904834 C17.5024634,23.6154849 17.7014974,23.3435196 17.9057849,23.0755984 C17.9733757,22.9876395 18.0416736,22.8986693 18.1104768,22.8107104 C18.1612962,22.7460047 18.2123177,22.6812992 18.2637432,22.6176048 C18.3529548,22.5053811 18.4429748,22.3951796 18.5340049,22.2849781 C18.6074556,22.196008 18.6815124,22.1070381 18.7561753,22.0190789 C18.8770102,21.8765247 18.9993607,21.7359924 19.1231254,21.5964711 C19.7488196,20.8897659 20.412704,20.2184463 21.1109395,19.5845346 C21.3876675,19.3327898 21.6697501,19.0881222 21.9569855,18.8485095 C22.117021,18.7150546 22.278673,18.5836215 22.4419414,18.4552213 C22.5656051,18.3571522 22.6900772,18.2600938 22.8155595,18.1640466 C22.8867875,18.1094514 22.9582173,18.0558671 23.0300514,18.0022831 C23.2075656,17.8698388 23.3866961,17.7394169 23.5675443,17.6110168 C23.7923417,17.4512751 24.0197656,17.2965886 24.2496145,17.1439242 L27.5182175,22.8248647 C27.6612793,23.0735765 27.8972912,23.2555607 28.1743223,23.3303763 C28.4512524,23.4051922 28.7465704,23.3667731 28.9951103,23.223208 L30.07343,22.6014286 C30.1477898,22.5630095 30.2223517,22.5245908 30.2972169,22.4861717 C30.4832176,22.3921467 30.6708351,22.3001434 30.8600689,22.2121845 C30.9871678,22.1535451 31.1149738,22.0959167 31.2433859,22.0403105 C31.3409834,21.9968363 31.438884,21.9553844 31.5372897,21.9149434 C31.5996266,21.8886571 31.6622666,21.8633813 31.7249069,21.8381059 C31.886963,21.7723893 32.0499283,21.7097057 32.213702,21.6490444 C32.3557537,21.5964711 32.4985127,21.54592 32.6417766,21.4973908 C32.8432353,21.4286412 33.0458055,21.3629248 33.249588,21.3012523 C33.5904716,21.199139 33.9345883,21.1061248 34.2810288,21.0232209 C34.4295465,20.987835 34.5785692,20.9544714 34.7279963,20.9231296 C34.9975509,20.8655012 35.2685201,20.81495 35.5403986,20.770465 C35.7974252,20.7280021 36.05526,20.6916052 36.3138021,20.6602635 C36.9870826,20.5803925 37.6650106,20.5369187 38.3431405,20.5308526 C38.409418,20.5308526 38.4755943,20.5308526 38.5418715,20.5308526 C38.6199696,20.5308526 38.6979667,20.5318636 38.7759638,20.5328746 C38.8463833,20.5338855 38.9168032,20.5348965 38.9871217,20.5369187 C39.087548,20.5399518 39.1879743,20.5429847 39.2884006,20.5470288 C39.5064287,20.557139 39.7243557,20.5702824 39.9418787,20.5874698 C40.1409127,20.6026351 40.3396434,20.6218447 40.5379703,20.6440873 C40.7989371,20.6734068 41.0592979,20.7077817 41.3187492,20.7482224 C41.7746078,20.8200051 42.2277386,20.9089753 42.6768278,21.0141217 C42.8530285,21.0555736 43.0285221,21.1000587 43.2034092,21.1475767 C43.3579889,21.1880176 43.5120634,21.2314918 43.6655318,21.2779988 C43.8490067,21.3315831 44.0314714,21.3892115 44.213128,21.4498728 C44.3096137,21.4812145 44.4059987,21.5145782 44.5019797,21.5479422 C44.6056391,21.584339 44.7089953,21.6217468 44.8120484,21.6601656 C44.9584443,21.7147608 45.1041332,21.7703673 45.2491149,21.8290067 C45.4991704,21.929098 45.7469019,22.0352554 45.9921079,22.1464678 C46.3147046,22.2930664 46.6329569,22.4487639 46.9463595,22.6145719 L43.6638142,28.1600352 C42.1006397,27.414911 40.3517673,26.9973583 38.5062071,26.9973583 C34.3593289,26.9973583 30.7002354,29.1043311 28.5399589,32.3052312 Z M36.4064489,12.949188 C36.0131296,12.9805295 35.6205174,13.0209705 35.2291174,13.0705106 C34.0608788,13.2181202 32.9027434,13.4456004 31.765623,13.7519404 C31.3428021,13.8661863 30.9227089,13.990542 30.5062532,14.1260192 C29.8635856,14.3342901 29.2291016,14.5688473 28.6048218,14.8276693 C28.3337517,14.939893 28.0647022,15.0571718 27.7975723,15.1784946 C27.7155339,15.2159024 27.6336976,15.2533102 27.5519622,15.2917293 C27.3098884,15.4049639 27.0695321,15.5222424 26.8310955,15.6425543 C26.6434783,15.7375906 26.4570733,15.8356597 26.2718808,15.93474 L28.7848615,20.3023612 C28.9402496,20.2204683 29.0967489,20.1395863 29.2542586,20.0617376 C29.3568066,20.0101755 29.4597586,19.9606353 29.5631148,19.9110951 C29.9844202,19.7099016 30.412495,19.5228623 30.8464294,19.3509883 C31.0989096,19.250897 31.3533094,19.1558607 31.6096289,19.0658796 C31.7408701,19.0193726 31.8726164,18.9748875 32.0048678,18.9314134 C32.0688213,18.9101821 32.1328762,18.8899615 32.1970317,18.8697411 C32.291295,18.8394103 32.3857604,18.8100908 32.4805289,18.7817819 C32.8176742,18.6796687 33.1574463,18.5856434 33.4993404,18.5017286 C33.8473972,18.4157916 34.1975759,18.3389538 34.5495729,18.2712152 C34.8834854,18.2065098 35.2191152,18.1498923 35.5558565,18.1023744 C36.0018138,18.0396909 36.4497918,17.9901507 36.8988813,17.9557758 C37.2378452,17.9305003 37.5773143,17.9123019 37.9170867,17.9032027 C38.0309502,17.9001695 38.1449149,17.8981476 38.2588795,17.8971364 C38.3329362,17.8961254 38.406993,17.8951145 38.4811511,17.8951145 C38.5045905,17.8951145 38.527929,17.8951145 38.5513686,17.8951145 C38.5818805,17.8951145 38.6123921,17.8961254 38.6428029,17.8961254 C38.7099896,17.8961254 38.7770752,17.8971364 38.8442616,17.8981476 C39.0447102,17.9011805 39.2451587,17.9072468 39.445506,17.916346 C39.6027127,17.9234231 39.7598181,17.9325223 39.9168227,17.9436437 C40.2111302,17.9628531 40.5051347,17.9891397 40.798432,18.0214924 C41.0053466,18.0447459 41.2119579,18.0700216 41.4181654,18.0993412 C41.6298284,18.129672 41.8411884,18.1620247 42.0518409,18.1984215 C42.179748,18.2206641 42.3074533,18.2439176 42.4348552,18.2681821 C42.7442165,18.3278324 43.0521635,18.39456 43.358494,18.4683647 C43.6590658,18.5401474 43.9581218,18.6190071 44.2551574,18.7049441 C44.4111515,18.7494292 44.5666406,18.7959362 44.7215233,18.8444654 C44.8198279,18.8758072 44.9179305,18.9071489 45.0157298,18.9395016 C45.1431317,18.9819645 45.2699276,19.0254386 45.3964204,19.0699237 C45.4662338,19.0941882 45.5359462,19.1194639 45.6054564,19.1447393 C45.728615,19.1892244 45.8512685,19.2357314 45.9735179,19.2822387 C46.1659846,19.3570543 46.3573403,19.4338921 46.5475843,19.5137631 C46.7005476,19.5784685 46.8527025,19.6441849 47.004049,19.7129345 C47.1177107,19.7634859 47.2307661,19.8160589 47.3434173,19.8686323 C47.5340654,19.9586134 47.7234005,20.0516274 47.9112197,20.1466636 C48.0850967,20.2356338 48.2577612,20.3266259 48.4290112,20.4196399 C48.5165054,20.4671582 48.6035953,20.5156871 48.6902811,20.5652273 C48.7697938,20.6097124 48.8491044,20.6552084 48.9280106,20.7007044 C49.2084769,20.8644902 49.4851037,21.0333311 49.7576894,21.2092492 C50.2007169,21.4953688 50.6328327,21.7986759 51.0529259,22.1171483 C51.149917,22.1909529 51.246201,22.2657688 51.3416765,22.3405844 C51.5831443,22.5306568 51.8205707,22.7267953 52.0539556,22.9269779 C52.1681224,23.0250473 52.2802683,23.1241276 52.3924145,23.2252299 C52.4510134,23.2778032 52.5086019,23.3303763 52.5672006,23.3839606 C52.6995533,23.5052835 52.8308956,23.6296392 52.9602172,23.7550063 C53.0592289,23.8510534 53.1582407,23.9481116 53.2552318,24.046181 C53.3118101,24.1027981 53.367378,24.1604266 53.4229458,24.218055 C53.5825772,24.3818407 53.7391775,24.5486597 53.8927469,24.7185115 C54.0483368,24.8893746 54.200896,25.0622595 54.3494137,25.2381774 C54.4989418,25.4140956 54.6454388,25.5920356 54.788905,25.7730089 C54.9778357,26.0095883 55.1607045,26.2512231 55.3385218,26.4969018 C55.4142959,26.6010372 55.4890601,26.7051726 55.5628138,26.81133 C55.595144,26.856826 55.6264643,26.903333 55.6587945,26.9498401 C55.7264863,27.0479094 55.7931678,27.1469898 55.858839,27.2460701 C55.9295616,27.3542497 56.0002845,27.4624289 56.0699969,27.5716195 C56.1114202,27.6373361 56.1528434,27.7030525 56.1932565,27.7697801 C56.2952992,27.9335659 56.3943112,28.0993739 56.4913023,28.2661926 C56.5721282,28.4047029 56.6509337,28.5442242 56.7277183,28.6837452 C56.7428731,28.7110429 56.7580281,28.7383405 56.7721727,28.7656381 C56.8216786,28.8546083 56.8691638,28.9456004 56.916649,29.0355815 C56.9782789,29.1528603 57.0388982,29.270139 57.0985074,29.3884288 C57.1187139,29.4298807 57.1399309,29.4703216 57.1601372,29.5117736 C57.1914574,29.575468 57.2227774,29.6391625 57.2530873,29.7038679 C57.2874381,29.7736285 57.320779,29.8444002 57.3531092,29.9141607 C57.3733158,29.9566239 57.3925121,29.9990868 57.4117082,30.0415497 C57.4339354,30.0890679 57.4551521,30.1365859 57.4763688,30.1830932 C57.54204,30.3307024 57.6067009,30.4773008 57.6693409,30.6259213 C57.7249087,30.7573543 57.7794664,30.8897983 57.8320034,31.0222424 C57.8572614,31.0859368 57.8815093,31.1486203 57.9057571,31.2113038 C57.9360667,31.2901636 57.9663765,31.3690236 57.9956758,31.4488943 C58.0350785,31.5540409 58.0734709,31.6591873 58.1108528,31.7653447 C58.1361112,31.8361164 58.1613692,31.9078991 58.185617,31.9796816 C58.1997616,32.0211335 58.2139062,32.0625857 58.2280505,32.1040376 C58.2452262,32.1566107 58.2624016,32.208173 58.2795773,32.2607461 C58.3159488,32.3729698 58.3513101,32.4862044 58.3866717,32.5994391 C58.4978074,32.9634074 58.59985,33.330409 58.6917897,33.7004434 C58.7150273,33.7964909 58.7382647,33.8915268 58.7604919,33.9875743 C58.7705952,34.0310481 58.7806984,34.0755332 58.7908014,34.1200183 C58.8190906,34.245385 58.8463696,34.370752 58.8716276,34.496119 C58.9100198,34.6811361 58.9453813,34.8661535 58.978722,35.0521818 C58.9999387,35.1714825 59.0191351,35.2907834 59.0383311,35.4100841 C59.0716718,35.617344 59.1019816,35.8256146 59.1282501,36.0338855 C59.1575495,36.2573219 59.1817973,36.480758 59.2040245,36.7041941 C59.2595924,37.2905876 59.2909124,37.8790034 59.2979845,38.4674188 C59.3010156,38.7444392 59.298995,39.0204487 59.2919225,39.2964581 C59.2838402,39.5724676 59.2707058,39.8474658 59.2525199,40.1224643 C59.2454478,40.2276107 59.2373652,40.3317461 59.2292825,40.4368925 C59.2211999,40.5299068 59.2131173,40.6239318 59.2040245,40.7169461 C59.1929108,40.8332136 59.1807868,40.9494814 59.1676527,41.0647379 C59.1636114,41.1041679 59.1585599,41.142587 59.1545186,41.1820167 C59.140374,41.2992955 59.125219,41.4165742 59.1090538,41.532842 C59.1019816,41.5904702 59.093899,41.6480986 59.0848062,41.705727 C59.0534859,41.9291631 59.0171144,42.1515883 58.9777115,42.3730025 C58.94134,42.5792511 58.9009269,42.7854998 58.8584932,42.9907378 C58.8483899,43.0372448 58.8392971,43.0827408 58.8291939,43.1292478 C58.8079771,43.2283282 58.7847395,43.3284195 58.7625125,43.4274998 C58.7392749,43.5265802 58.7150273,43.6256605 58.6907795,43.7247406 C58.6776451,43.7773139 58.664511,43.8308982 58.6503664,43.8844825 C58.6432942,43.914813 58.6352116,43.9451438 58.627129,43.9754746 L58.6261185,43.9815406 C60.5447253,42.0616072 62.4633324,40.1406627 64.3819392,38.2207292 C64.3819392,38.2005089 64.3809287,38.1802882 64.3809287,38.1600679 C64.3799185,38.1014285 64.3778979,38.0438001 64.3758772,37.9861717 C64.3728461,37.8699041 64.3688048,37.7536364 64.3637533,37.6373688 C64.3617326,37.6050158 64.3607222,37.5736744 64.359712,37.5413214 C64.3546605,37.4381972 64.3485985,37.3350727 64.3425365,37.2319482 C64.3415261,37.2046506 64.3395054,37.176342 64.3374848,37.1490444 C64.3304126,37.0206445 64.3213195,36.8922443 64.3112163,36.7648554 C64.2970717,36.5838822 64.2819169,36.4029092 64.263731,36.2229469 C64.2485763,36.0702823 64.232411,35.9176179 64.2152356,35.7649533 C64.185936,35.5172527 64.1536058,35.2695519 64.1182442,35.0228622 C64.0808623,34.7650512 64.039439,34.5082511 63.9949846,34.2524623 C63.9636646,34.0795773 63.9323446,33.9077033 63.8979935,33.7358293 C63.8858695,33.674157 63.8737456,33.6124845 63.8606115,33.5518232 C63.8505082,33.4992498 63.8393948,33.4476877 63.828281,33.3961254 C63.809085,33.3021004 63.7888784,33.2080751 63.7676617,33.1140499 C63.7484653,33.0291238 63.7292693,32.945209 63.7100732,32.860283 C63.7050214,32.8420846 63.7009801,32.8228752 63.6969388,32.8046768 C63.6838047,32.7531147 63.6716808,32.7015523 63.6595568,32.6499902 C63.6474329,32.5984281 63.6342988,32.5468657 63.6211644,32.4953036 C63.6060096,32.4346423 63.5908549,32.3739807 63.5756998,32.3143304 C63.5565038,32.2395148 63.5373077,32.1646989 63.5171011,32.0898833 C63.4625435,31.8856566 63.4059654,31.6824408 63.3463563,31.479225 C63.3029121,31.3336377 63.2594682,31.1880503 63.2140036,31.0434739 C63.1816731,30.9383276 63.1483325,30.8341921 63.1139813,30.7290457 C63.0765994,30.6148001 63.0382072,30.5005545 62.9988043,30.3863087 C62.9705154,30.3023938 62.9412158,30.2184788 62.9119165,30.1345639 C62.8664519,30.008186 62.8209873,29.881808 62.7735021,29.75543 C62.6088189,29.311591 62.4320121,28.8717957 62.2420712,28.4380666 C62.2238853,28.3956037 62.2046892,28.3521296 62.1865033,28.3096667 C60.8407507,28.2146305 59.7778889,27.0903723 59.7778889,25.7204358 C59.7778889,24.2878155 60.9397625,23.1241276 62.3724029,23.1241276 C63.8040332,23.1241276 64.9659068,24.2878155 64.9659068,25.7204358 C64.9659068,26.2269584 64.82042,26.7001173 64.5688492,27.1004828 C64.5850145,27.1348574 64.6001692,27.1702433 64.6163345,27.2056292 C64.667861,27.3218967 64.7183774,27.4381645 64.7688935,27.5554432 C64.9113494,27.8900921 65.0477432,28.2267628 65.1780749,28.5654555 C65.3174998,28.9324571 65.4508627,29.3024918 65.576143,29.6745484 C65.6307006,29.8383342 65.6842478,30.0021199 65.7357744,30.1659057 C65.7741668,30.2862174 65.8105383,30.4065293 65.8469101,30.5268409 C65.9398599,30.8341921 66.026748,31.1435653 66.1095945,31.4539496 C66.1439457,31.5863936 66.1782965,31.7198486 66.2116374,31.8533039 C66.2267922,31.9139652 66.241947,31.9756374 66.257102,32.036299 C66.2641742,32.0666295 66.2712466,32.0969603 66.2783187,32.1272911 C66.2843807,32.1505446 66.2894325,32.1737981 66.294484,32.1970516 C66.3005459,32.2192942 66.3055974,32.2425477 66.3106492,32.2658012 C66.319742,32.3032093 66.3288351,32.341628 66.3379279,32.3800471 C66.3621758,32.4892376 66.3864236,32.5984281 66.4106714,32.7076186 C66.4531049,32.9027461 66.4925075,33.0978737 66.5309,33.2940121 C66.5591891,33.4365663 66.5854576,33.5791208 66.6107157,33.722686 C66.6824487,34.1240624 66.7450887,34.5264496 66.7996464,34.9308589 C66.8218736,35.0936337 66.8420801,35.2574195 66.8612762,35.4201943 C66.8663277,35.4616462 66.8713795,35.5020872 66.8754208,35.5425281 C66.8784516,35.5698258 66.8814827,35.5971234 66.8845136,35.624421 C66.8875447,35.6517187 66.8905756,35.6780053 66.8936067,35.705303 L66.8936067,35.7073249 C67.5846687,35.0167959 68.2747206,34.325256 68.9647724,33.634727 C69.4376044,33.1615681 69.9104366,32.688409 70.3822581,32.216261 C70.4580325,32.1404345 70.5338069,32.0646076 70.6095813,31.9887808 C70.6590872,31.9392406 70.7096035,31.8886895 70.7591094,31.8391493 C70.7631507,31.8351052 70.7661816,31.8320723 70.7692127,31.8280282 C70.7762848,31.8209509 70.7833572,31.8138739 70.7904294,31.8067966 C70.8035638,31.7916313 70.8177081,31.7764661 70.8308425,31.7613005 C70.8348838,31.7552345 70.8389251,31.7501794 70.8439766,31.7451243 C70.8561005,31.7299588 70.8682244,31.7137826 70.8803484,31.698617 C70.8965136,31.6763748 70.9116684,31.6541322 70.9268234,31.6308787 C70.9328851,31.6227905 70.9389471,31.6136913 70.9439988,31.6045921 C70.9551123,31.5863936 70.966226,31.5681952 70.9763293,31.5499968 C70.9834014,31.5378644 70.9894634,31.5247211 70.9965356,31.5125887 C71.0127008,31.480236 71.0278558,31.4478833 71.0420004,31.4145196 C71.0480624,31.3983431 71.0551345,31.3811559 71.0611965,31.3639685 C71.0652378,31.3548693 71.0682686,31.3447588 71.0712998,31.3346487 C71.0773617,31.3184724 71.0824132,31.301285 71.087465,31.2851085 C71.0965578,31.2557889 71.1036302,31.2264691 71.1107024,31.1971495 C71.1167643,31.1708629 71.1218158,31.1435653 71.1258572,31.1162676 C71.1278778,31.1081794 71.1288883,31.1000914 71.1298985,31.0909922 C71.1329296,31.0697606 71.1359604,31.0475181 71.1379811,31.0262865 C71.1389915,31.0090993 71.1400017,30.9919118 71.1410122,30.9747244 C71.1430328,30.9443936 71.144043,30.9140631 71.1430328,30.8837323 C71.1430328,30.876655 71.1430328,30.868567 71.1430328,30.8614898 C71.1410122,30.8200378 71.1379811,30.7775749 71.1329296,30.7361227 C71.1268676,30.6946708 71.1197952,30.6532189 71.1107024,30.611767 C71.1056509,30.5895244 71.0995889,30.5662709 71.093527,30.5440284 C71.0915063,30.5379623 71.0894856,30.530885 71.087465,30.523808 C71.081403,30.5035874 71.0753411,30.4833671 71.0682686,30.4631465 C71.0591758,30.4307937 71.0490726,30.398441 71.0389693,30.3660883 C71.0025975,30.2498205 70.9652156,30.1325418 70.9278336,30.0162742 C70.882369,29.8737198 70.8348838,29.7321765 70.7873986,29.5906333 C70.7055622,29.3459656 70.6206947,29.1023091 70.5327967,28.8596634 C70.4762184,28.7009327 70.4176197,28.542202 70.3590207,28.3834713 C70.3216388,28.2854022 70.285267,28.1883438 70.2468746,28.0902747 C70.2125237,28.0002935 70.1781726,27.9103124 70.1428113,27.8203313 C70.101388,27.7151849 70.0599645,27.6090275 70.017531,27.5048921 C69.9811592,27.4139 69.9447875,27.3239189 69.908416,27.2349487 C69.8518376,27.0964386 69.7942491,26.9579283 69.7366606,26.8204292 C69.6982682,26.731459 69.6608862,26.6414782 69.6224938,26.552508 C69.5901636,26.4776921 69.5578332,26.4038875 69.5255027,26.3290719 C69.4335631,26.120801 69.3406133,25.9125302 69.246653,25.7052703 C69.2032091,25.610234 69.1587549,25.5141869 69.1143006,25.4191506 C68.984979,25.1411193 68.8516161,24.8640989 68.7162325,24.5880894 C68.6465201,24.4465462 68.5757975,24.3060139 68.5040644,24.1654816 C68.4414241,24.0411259 68.3777737,23.9167698 68.313113,23.7924141 C68.2656278,23.7024329 68.2181425,23.6124518 68.1706573,23.5224709 C68.1443888,23.4719195 68.1171098,23.4213684 68.0898311,23.3708173 C68.0312324,23.2606158 67.9716233,23.1514253 67.9120141,23.0412238 C67.7958267,22.8299198 67.678629,22.619627 67.5594107,22.4113561 C67.4937396,22.2960993 67.4280684,22.1818537 67.3613871,22.0676081 C67.2270138,21.8370947 67.0896096,21.6075925 66.9501847,21.379101 C66.8319769,21.1859957 66.7127585,20.9939014 66.5915196,20.8028177 C66.3530829,20.4277282 66.1085844,20.0566825 65.8570133,19.6906922 C65.7883114,19.5895896 65.7196091,19.4894983 65.6488865,19.390418 C65.6094836,19.3327898 65.5690708,19.2761724 65.5286577,19.2185442 C65.4508627,19.1083425 65.3720575,18.998141 65.2922418,18.8889505 C65.2528391,18.8333443 65.2124261,18.778749 65.172013,18.7241538 C65.1043215,18.6311395 65.0356192,18.5391364 64.9669173,18.4461221 C64.8901324,18.3429979 64.8123374,18.2408844 64.7335321,18.13776 C64.6931191,18.0841759 64.6516958,18.0305916 64.6102725,17.9770073 C64.5314673,17.8748941 64.4516516,17.7737916 64.3718359,17.6726893 C64.2970717,17.5776531 64.2202871,17.4816059 64.1435025,17.3865697 C63.9798298,17.1843649 63.8141365,16.9831713 63.6464227,16.7839997 L59.1302708,21.1829626 C58.6705729,21.6298351 57.9370771,21.6207358 57.4884928,21.1637532 C57.4854619,21.16072 57.4824308,21.1576871 57.4783895,21.1556649 C57.4612141,21.1415106 57.4460593,21.1253344 57.4298941,21.1101689 C57.4298941,21.1091579 57.4096875,21.0879263 57.4096875,21.0879263 C57.4026154,21.0808493 57.3965534,21.073772 57.389481,21.066695 C57.3733158,21.0484966 57.3561403,21.0313092 57.3399751,21.0131107 C57.3005725,20.9716588 57.2621801,20.9312178 57.2227774,20.8897659 L56.8732051,20.5308526 C56.8519881,20.5086101 56.8307714,20.4873785 56.8085442,20.4661469 C56.6054689,20.2619202 56.3983525,20.0607266 56.1871946,19.8635772 C56.0346353,19.7210227 55.8810662,19.5794795 55.7244656,19.4399582 C55.6042371,19.3327898 55.4819877,19.2256213 55.358728,19.1204749 C55.224355,19.0042071 55.0879612,18.8889505 54.950557,18.7757159 C54.8525554,18.6948339 54.7535437,18.6149633 54.6545316,18.5350923 C54.3857854,18.3207554 54.1140079,18.1104623 53.8371791,17.9072468 C53.7331156,17.8293981 53.6270314,17.7535712 53.5219576,17.6777444 C53.4199147,17.6049507 53.3178721,17.533168 53.2148188,17.4613853 C53.1218689,17.3976908 53.0279087,17.3329854 52.9339487,17.2703019 C52.7409766,17.1398801 52.5449734,17.0114799 52.3479601,16.8861132 C52.2166178,16.8021981 52.0842654,16.7203052 51.9509025,16.6384123 C51.6710426,16.4685605 51.3881516,16.3027525 51.1026338,16.1430109 C50.9175423,16.0388754 50.7311373,15.9377732 50.5436211,15.8386928 C50.47795,15.8043179 50.4120768,15.7699433 50.3461027,15.7365796 C50.2146594,15.6678298 50.0826098,15.6011024 49.9500553,15.5353857 C49.7677926,15.4454046 49.5845198,15.3574457 49.4002365,15.2715087 C49.0705676,15.1178331 48.7375643,14.9712348 48.4015304,14.8317134 C48.1708734,14.7366772 47.9388018,14.6436632 47.7054166,14.554693 C47.1975264,14.3615877 46.683574,14.1836474 46.1643683,14.0228948 C45.8472272,13.9238144 45.5282677,13.8318114 45.2075906,13.7458743 C44.6208949,13.5881546 44.0286426,13.4516665 43.4323487,13.3364099 C43.0454954,13.261594 42.6569246,13.1958776 42.2670402,13.1392602 C41.7376299,13.0614114 41.2057949,13.0007501 40.6726467,12.956265 C40.6461761,12.9542431 40.6197056,12.9522209 40.5932351,12.950199 C40.1210092,13.5942209 39.3589212,14.0127846 38.4999431,14.0127846 C37.6407627,14.0127846 36.8786747,13.5942209 36.4064489,12.949188 Z M53.6068248,8.85757606 C53.3815226,8.74636362 53.1552096,8.63919503 52.9268762,8.53404864 C52.7369353,8.4460897 52.5459839,8.36116365 52.3550325,8.2782598 C52.2590516,8.23579665 52.1630706,8.19535568 52.0660795,8.15390376 C51.7650029,8.02651482 51.4608949,7.90418098 51.1557769,7.78690249 C51.0234242,7.73534012 50.8907687,7.68579995 50.7577089,7.63625978 C50.6436434,7.59480785 50.5292745,7.55335593 50.4147036,7.51291496 C50.2301172,7.44719857 50.0448237,7.3835041 49.8590251,7.3208206 C49.5689607,7.22376218 49.2772799,7.13175912 48.9844879,7.04278923 C48.434467,6.87698126 47.8800008,6.72633882 47.3219983,6.59086164 C46.7683404,6.45538445 46.2111461,6.33608377 45.6512243,6.22992641 C45.3684343,6.17634212 45.0849371,6.12579098 44.8009349,6.0792837 C44.5843211,6.0438981 44.3673035,6.01053415 44.1500836,5.9791924 C43.7160479,5.91650916 43.2808002,5.86292487 42.8447438,5.81540662 C42.148529,5.74160198 41.4501925,5.68700673 40.7508458,5.65162085 C40.1944599,5.62331226 39.6374679,5.60713577 39.0803746,5.60208068 C38.8438576,5.59904779 38.6072396,5.59904779 38.3707226,5.60106972 C37.7789753,5.6061248 37.1872281,5.62331226 36.5961881,5.65364305 C36.3615907,5.66577515 36.1271951,5.67992944 35.8929008,5.6971169 C35.3616722,5.7345247 34.8311504,5.78305391 34.3020435,5.84270425 C33.6485654,5.91650916 32.9971078,6.00851222 32.3487825,6.1187137 C32.1961223,6.14500037 32.0436643,6.17229799 31.8914084,6.19959562 C31.3049147,6.30777517 30.7212501,6.43111999 30.1413238,6.57064129 C29.2949747,6.77284583 28.4566072,7.00942528 27.6294542,7.2813906 C27.2334069,7.41080173 26.8399863,7.54830084 26.4493947,7.69388819 C26.2716787,7.76061582 26.0946699,7.82835441 25.9181661,7.89811493 C25.8367338,7.92945668 25.7554026,7.96180939 25.6742736,7.99517307 C25.4306842,8.09324245 25.1883073,8.19535568 24.9472439,8.29949111 C24.4196522,8.52899355 23.8985266,8.77265028 23.3847765,9.03147227 C23.2774801,10.3660232 22.1599598,11.4174874 20.7990522,11.4174874 C20.4245249,11.4174874 20.0684862,11.3376167 19.7469,11.1940513 C19.4251115,11.4174874 19.1075663,11.6459789 18.7944667,11.8815471 C18.6363509,11.9998368 18.4792455,12.1201487 18.3234534,12.2414716 C18.2620256,12.2900005 18.2006989,12.3375188 18.1395742,12.386048 C17.9892379,12.5053487 17.8400128,12.6256603 17.6918992,12.7479942 C17.5112531,12.8956037 17.3323246,13.0462462 17.1550127,13.1989108 C17.0766116,13.2666494 16.9985135,13.3343877 16.9208194,13.4021263 C16.6687433,13.6235405 16.4200014,13.8479878 16.1747954,14.0764791 C16.0327438,14.209934 15.8918036,14.3433893 15.7520757,14.4778552 C15.6339686,14.5921008 15.5167709,14.7073577 15.4002804,14.8236252 C15.3510776,14.8721544 15.3020771,14.9216946 15.2530763,14.9702238 C15.134262,15.0905354 15.0161549,15.2108474 14.8991593,15.33217 C14.788832,15.4474268 14.6793126,15.5626834 14.5706017,15.6779402 C14.5199846,15.7325355 14.4694682,15.7871307 14.4190532,15.841726 C14.2330522,16.0419086 14.0495773,16.2461353 13.8683249,16.451373 C13.7765875,16.5555085 13.6854561,16.6596439 13.595032,16.7647903 C13.5377468,16.8315179 13.4806634,16.8982453 13.4238831,16.9649729 C13.408324,16.9831713 13.3927651,17.0013697 13.377307,17.0195681 C13.2948646,17.1176375 13.2129272,17.2157066 13.1314952,17.313776 C13.0348071,17.4310548 12.9388262,17.5483335 12.8436537,17.6666233 C12.8034426,17.7161634 12.7635349,17.7657036 12.723728,17.8162547 C12.6639168,17.8910703 12.6045096,17.9658862 12.5454056,18.0417128 C12.5059019,18.0922639 12.4666003,18.1418041 12.4275008,18.1923552 C12.3588998,18.2813254 12.2907027,18.3692843 12.2229099,18.4582545 C12.1260198,18.5856434 12.0300389,18.7130324 11.9347653,18.8414323 C11.8415125,18.9678102 11.7490678,19.0941882 11.6574312,19.2205662 C11.5731701,19.336834 11.4896162,19.4541125 11.4067696,19.5713912 C11.3736309,19.6189095 11.3404923,19.6654165 11.3075557,19.7129345 C11.2581508,19.7837062 11.208948,19.854478 11.1600483,19.9252494 C11.0797275,20.0415172 11.0000128,20.158796 10.9209044,20.2760745 C10.7846116,20.4782793 10.6503394,20.682506 10.5178858,20.8867328 C10.4300886,21.0232209 10.3430996,21.1586981 10.2569189,21.2961972 C10.1997345,21.3871893 10.1429543,21.4781814 10.0864771,21.5691735 L10.0710191,21.5944492 C10.0147441,21.6854413 9.95867103,21.7774443 9.90310318,21.8684364 C9.80752643,22.0261562 9.71296004,22.1848868 9.61960601,22.3436175 C9.58212298,22.407312 9.54474096,22.4710065 9.50756101,22.5347009 C9.44815391,22.6378254 9.38904991,22.7399386 9.33045105,22.8430631 C9.28276372,22.9269779 9.23558157,23.010893 9.18850042,23.0948078 C9.08595246,23.2778032 8.98471791,23.4618093 8.88489782,23.6458157 C8.78942212,23.8227448 8.69515881,24.0006849 8.6021079,24.178625 C8.53633576,24.3050029 8.47096775,24.4313809 8.40640798,24.5577589 C8.35892271,24.6517839 8.31174054,24.7447982 8.26496252,24.8388232 C8.25293964,24.8630879 8.24091676,24.8863414 8.22889391,24.9106059 C8.13018517,25.1087666 8.03309297,25.3079382 7.93751623,25.5081208 C7.86962242,25.649664 7.80253684,25.7922182 7.73625952,25.9347727 C7.68533915,26.0449742 7.63472189,26.1551757 7.58460978,26.2653774 C7.52449544,26.3978214 7.46518937,26.5302654 7.40648952,26.6627095 C7.39173877,26.6960734 7.37719009,26.7294371 7.36264141,26.7628008 C7.33344303,26.8285174 7.30444671,26.8952448 7.27565246,26.9619724 C7.21796291,27.0954277 7.16098057,27.2288827 7.10470548,27.3633489 C7.07894221,27.4240102 7.05327996,27.4856825 7.02771872,27.547355 C6.97578802,27.672722 6.9243625,27.7980887 6.87354318,27.9244667 C6.83818178,28.0114147 6.8033256,28.0993739 6.76857043,28.1873328 C6.75775994,28.2146305 6.74694946,28.2419281 6.73624002,28.2692257 C6.72755123,28.2914683 6.71896347,28.3137108 6.71027468,28.3359533 C6.68885578,28.3905486 6.66753795,28.4451439 6.64632111,28.5007501 C6.63581373,28.5280477 6.62520531,28.5553453 6.61469794,28.582643 C6.56731372,28.7059878 6.52053568,28.8303438 6.47446488,28.9546996 C6.45183358,29.0153609 6.42940437,29.0760225 6.40707619,29.1366838 C6.39111307,29.1801579 6.375352,29.224643 6.35948991,29.2681168 L6.35009388,29.2944035 C6.3374648,29.3287781 6.32493678,29.364164 6.31240875,29.3985389 C6.28442276,29.4773987 6.25663883,29.5552474 6.22905697,29.6341074 C6.17015503,29.8019373 6.1125665,29.9707782 6.05619039,30.139619 C6.02567857,30.2306111 5.99567192,30.3226142 5.96596839,30.4136063 C5.9588961,30.4358488 5.95192486,30.4580914 5.9448526,30.479323 C5.93980096,30.4954992 5.93474935,30.5106647 5.92979877,30.5268409 C5.92818224,30.531896 5.92666674,30.5369514 5.92515126,30.5420065 C5.92232235,30.5511057 5.91949343,30.5602049 5.91696763,30.570315 C5.91019845,30.5945795 5.90403547,30.6198552 5.89868075,30.6441197 C5.89282085,30.6724283 5.88776924,30.6997259 5.88352587,30.7280348 C5.87877735,30.7603875 5.87514017,30.7937512 5.87271541,30.8261039 C5.87039165,30.8574456 5.86938132,30.8877764 5.8692803,30.9191182 C5.86907823,30.9828126 5.87352367,31.0475181 5.88261659,31.1102016 C5.88524344,31.1284 5.88827439,31.1465984 5.89160849,31.1647968 C5.89251777,31.1698519 5.89342705,31.174907 5.89433636,31.1789511 C5.89595288,31.1880503 5.89777147,31.1961386 5.89959003,31.2042268 C5.90161068,31.213326 5.90363134,31.2224252 5.90585406,31.2315245 C5.91040051,31.2507338 5.91514904,31.2689323 5.92050376,31.2881416 C5.92646467,31.308362 5.93293077,31.3295936 5.93990201,31.3498142 C5.94515568,31.3649794 5.95081351,31.3811559 5.95657236,31.3963212 C5.9756675,31.4458614 5.99779362,31.4954015 6.02274863,31.5419085 C6.03153846,31.559096 6.04073243,31.5752722 6.05022947,31.5914487 C6.05255321,31.5954928 6.05487698,31.599537 6.05720072,31.6035811 C6.06750602,31.6207683 6.07831651,31.6379557 6.08943008,31.6551432 C6.10367565,31.6763748 6.11862846,31.6976061 6.13418747,31.7188377 C6.14762478,31.7360251 6.16146625,31.7542235 6.17581284,31.7714107 C6.19521109,31.7946645 6.21541757,31.8169068 6.2363313,31.8391493 C6.24360563,31.8462266 6.250981,31.8543148 6.25835638,31.8613918 L10.101632,35.7073249 C10.1039558,35.6850826 10.1064816,35.6618288 10.1089063,35.6395863 C10.1105229,35.624421 10.1121394,35.6092558 10.1138569,35.5951015 C10.1212323,35.5283739 10.1288097,35.4616462 10.1365892,35.3959298 C10.1418429,35.3514447 10.1471976,35.3069597 10.1526534,35.2624746 C10.1680103,35.1371078 10.1842766,35.0117408 10.2013511,34.8863741 C10.2253968,34.709445 10.251059,34.5335268 10.2785399,34.3576087 C10.3355222,33.9895962 10.3997788,33.6236056 10.4711078,33.2596372 C10.5080857,33.070576 10.5469832,32.8815146 10.5878003,32.6934643 C10.6098254,32.5923618 10.6323556,32.4912595 10.655391,32.3901572 C10.6702428,32.3254518 10.6852966,32.2607461 10.7006536,32.1950297 C10.7204559,32.1111146 10.7405614,32.0282108 10.761071,31.944296 C10.767234,31.9190203 10.773397,31.8937446 10.779661,31.8694801 C10.789057,31.8310613 10.7985541,31.7936533 10.8080511,31.7562455 C10.8318948,31.6612092 10.8561426,31.567184 10.8809966,31.473159 C10.8925143,31.4296849 10.904133,31.386211 10.9159538,31.3417259 C10.9377768,31.260844 10.960004,31.1789511 10.9826352,31.0980692 C10.9982953,31.042463 11.0140563,30.9858455 11.0301205,30.9292283 C11.0603292,30.824082 11.0911441,30.7179243 11.1224642,30.6127779 C11.1520667,30.5126866 11.1822754,30.4136063 11.2128883,30.3145262 C11.2359237,30.2407213 11.2592622,30.1669167 11.2828028,30.0921011 C11.3222054,29.968756 11.3624163,29.8454112 11.4034355,29.7230773 C11.4669849,29.5319939 11.532555,29.3429327 11.6001457,29.1538712 C11.6212615,29.0942209 11.6426805,29.0355815 11.6642003,28.9769421 C11.7196671,28.8242775 11.7765485,28.6726241 11.8346421,28.5219817 C11.8765707,28.4127911 11.9191052,28.3046116 11.9623471,28.1954211 C11.9723494,28.1701454 11.9824526,28.1458809 11.9925559,28.1206052 C12.0303422,28.0265802 12.0687344,27.932555 12.1075309,27.8385297 C12.1508738,27.7343943 12.194621,27.6302588 12.2391762,27.5261234 C12.2664551,27.4634402 12.2938348,27.3997457 12.3214166,27.3370622 C12.3289941,27.3198748 12.3365716,27.3026873 12.3440479,27.2854998 C12.3735495,27.2177613 12.403354,27.1510339 12.4334617,27.0843063 C12.1882557,26.6879852 12.0467095,26.2208923 12.0467095,25.7204358 C12.0467095,24.2999479 13.1885783,23.1453589 14.6029321,23.1251386 C14.6574898,23.0412238 14.7125525,22.9583197 14.7680194,22.8754158 C14.7994404,22.8289088 14.8310634,22.7824018 14.8627878,22.7358945 C14.9156276,22.6580457 14.9688717,22.580197 15.0225199,22.5023482 C15.140526,22.3324961 15.2602494,22.1636553 15.3817915,21.9968363 C15.4969685,21.8381059 15.613661,21.6803862 15.7319702,21.5246884 C15.9554541,21.2294696 16.1845956,20.9393061 16.4192942,20.6531865 C16.6667227,20.3519013 16.9204154,20.0556715 17.1799677,19.7644968 C17.4036536,19.5137631 17.631785,19.2660622 17.8641596,19.0234167 C18.1151243,18.7605506 18.3711407,18.5027396 18.6318045,18.2499836 C18.8950951,17.9952058 19.1632354,17.744472 19.4360229,17.4998043 C19.6545563,17.3036658 19.8762216,17.1105602 20.1007157,16.921499 C20.3861325,16.6798642 20.6762977,16.445307 20.9710096,16.2147936 C21.1696395,16.060107 21.3703908,15.9084533 21.5730621,15.7588219 C21.8707038,15.5394299 22.1724878,15.325093 22.4784142,15.1178331 C22.8188937,14.8863087 23.1643237,14.6618616 23.5144011,14.4455025 C23.9578327,14.1715153 24.4088418,13.9086492 24.86662,13.6599373 C25.5748575,13.2737264 26.2995635,12.9178463 27.0380101,12.5933076 C27.1873362,12.5275912 27.3371673,12.4628855 27.4876046,12.4002023 C27.8518267,12.2475377 28.2193828,12.1029613 28.5896668,11.9654622 C28.81699,11.8815471 29.0454243,11.7996542 29.2748692,11.7218054 C29.5460404,11.6287914 29.8185251,11.5398212 30.092323,11.4559064 C30.6959921,11.2698781 31.3058242,11.1040701 31.9205057,10.9584828 C32.4931579,10.8240166 33.0700534,10.7057268 33.6499797,10.6066468 C34.2271783,10.5075664 34.8073069,10.4266845 35.389456,10.36299 C35.6468869,10.3356924 35.9046206,10.3114279 36.1627587,10.2901964 C36.5822455,9.42071609 37.4716344,8.82117922 38.4999431,8.82117922 C39.5284538,8.82117922 40.4179438,9.42172732 40.8374306,10.2901964 C41.1452766,10.3154718 41.4527182,10.3458026 41.7595541,10.3801775 C42.2037938,10.4307286 42.6469223,10.4924009 43.0883333,10.5641836 C43.2303849,10.5864262 43.3723355,10.6106909 43.5140841,10.6359663 C43.7855583,10.6844955 44.0564264,10.7360576 44.3263853,10.7926751 C45.0142145,10.9352293 45.6967899,11.1040701 46.372192,11.2981867 C46.7088323,11.3942339 47.0437549,11.4973583 47.376657,11.6065489 C47.6163061,11.6843976 47.8548437,11.7662905 48.0923709,11.8512166 C48.2968608,11.9240102 48.5004412,11.9998368 48.7032135,12.0776858 C48.9406396,12.1686779 49.1768536,12.2627029 49.4118553,12.3607723 C49.5831052,12.431544 49.7537491,12.5043377 49.9236858,12.5781424 C50.1442396,12.6752005 50.3636822,12.7742808 50.5817102,12.8763943 C50.751849,12.956265 50.9211796,13.037147 51.0897017,13.1210618 C51.2533742,13.2009327 51.4164407,13.2838366 51.5780928,13.3677517 C51.9973776,13.5841105 52.4116105,13.811591 52.8197818,14.0481705 C53.6714857,14.5445829 54.4979313,15.0834584 55.2940674,15.6647969 C55.7173935,15.973159 56.1306163,16.2926423 56.5357564,16.623247 C56.7024603,16.7587242 56.8661327,16.8962233 57.0298054,17.0357446 C57.2672318,17.2389601 57.5016272,17.4452091 57.7319812,17.6565128 C57.8370549,17.7525603 57.9421286,17.8496184 58.0461922,17.9476878 C58.1068115,18.004305 58.1664207,18.0609224 58.2260299,18.1175396 C58.3179695,18.2065098 58.4099091,18.2944687 58.5008383,18.3844499 C58.5220553,18.4046702 58.5422615,18.4248908 58.5634785,18.4461221 L62.0632437,15.0369511 C62.05213,15.02583 62.0420267,15.0147089 62.0309132,15.0035875 C61.9793867,14.9510144 61.9278601,14.899452 61.8763336,14.846879 C61.8399618,14.8094709 61.8035901,14.7720631 61.7662081,14.7356663 C61.6591137,14.6274867 61.5510089,14.5213294 61.4418938,14.4151717 C61.3246961,14.2999152 61.2064883,14.1866805 61.08727,14.0744569 C60.9225868,13.9187593 60.7579039,13.766095 60.5901902,13.6144413 C60.2406176,13.2969799 59.8829626,12.9876068 59.5192457,12.6863219 C59.3676969,12.5609549 59.215138,12.4376101 59.0615685,12.3152762 C58.8726378,12.1646338 58.6816864,12.0160133 58.4887143,11.8704259 C58.185617,11.6399125 57.8784782,11.4154655 57.5662878,11.1980954 C57.5218337,11.1667536 57.4783895,11.1364228 57.4339354,11.1050811 C57.0671874,11.3042527 56.6468924,11.4174874 56.2013391,11.4174874 C54.7808224,11.4174874 53.6260212,10.2730089 53.6068248,8.85757606 Z M14.6408195,24.2716393 C15.4401884,24.2716393 16.08912,24.9207163 16.08912,25.7204358 C16.08912,26.5201553 15.4401884,27.1692323 14.6408195,27.1692323 C13.8414502,27.1692323 13.1925186,26.5201553 13.1925186,25.7204358 C13.1925186,24.9207163 13.8414502,24.2716393 14.6408195,24.2716393 Z M62.3724029,24.2716393 C63.1715698,24.2716393 63.8201984,24.9207163 63.8201984,25.7204358 C63.8201984,26.5201553 63.1715698,27.1692323 62.3724029,27.1692323 C61.5722259,27.1692323 60.9235973,26.5201553 60.9235973,25.7204358 C60.9235973,24.9207163 61.5722259,24.2716393 62.3724029,24.2716393 Z M38.4999431,9.9676799 C39.2993121,9.9676799 39.9482437,10.6167569 39.9482437,11.4174874 C39.9482437,12.2172069 39.2993121,12.8662839 38.4999431,12.8662839 C37.7006752,12.8662839 37.0516425,12.2172069 37.0516425,11.4174874 C37.0516425,10.6167569 37.7006752,9.9676799 38.4999431,9.9676799 Z M56.2013391,7.37137173 C57.000506,7.37137173 57.6491346,8.02145974 57.6491346,8.82117922 C57.6491346,9.6208987 57.000506,10.2699757 56.2013391,10.2699757 C55.4011618,10.2699757 54.7525332,9.6208987 54.7525332,8.82117922 C54.7525332,8.02145974 55.4011618,7.37137173 56.2013391,7.37137173 Z M20.7990522,7.37137173 C21.5983201,7.37137173 22.2473528,8.02145974 22.2473528,8.82117922 C22.2473528,9.6208987 21.5983201,10.2699757 20.7990522,10.2699757 C19.9996833,10.2699757 19.3507516,9.6208987 19.3507516,8.82117922 C19.3507516,8.02145974 19.9996833,7.37137173 20.7990522,7.37137173 Z M38.4964069,48.6361869 C33.2910321,48.6361869 29.0712421,44.4109888 29.0712421,39.1989427 C29.0712421,33.9868967 33.2910321,29.7616985 38.4964069,29.7616985 C43.7017817,29.7616985 47.9215717,33.9868967 47.9215717,39.1989427 C47.9215717,44.4109888 43.7017817,48.6361869 38.4964069,48.6361869 Z" id="Shape-Copy-3"></path>
                </g>
            </g>
        </g>
    </g>
</svg>